<?xml version="1.0" standalone="no"?>
<!DOCTYPE svg PUBLIC "-//W3C//DTD SVG 20010904//EN"
 "http://www.w3.org/TR/2001/REC-SVG-20010904/DTD/svg10.dtd">
<svg version="1.0" xmlns="http://www.w3.org/2000/svg"
 width="1254.000000pt" height="1254.000000pt" viewBox="0 0 1254.000000 1254.000000"
 preserveAspectRatio="xMidYMid meet">

<g transform="translate(0.000000,1254.000000) scale(0.100000,-0.100000)"
fill="#000000" stroke="none">
<path d="M0 6270 l0 -6270 6270 0 6270 0 0 6270 0 6270 -6270 0 -6270 0 0
-6270z m6384 4996 c41 -17 74 -58 82 -103 9 -48 -26 -121 -65 -136 l-29 -10
23 -67 c68 -201 224 -428 342 -497 61 -35 118 -27 248 37 105 51 267 174 320
244 l28 37 -24 25 c-19 21 -24 36 -24 81 0 50 3 57 37 89 33 29 45 34 88 34
43 0 56 -5 86 -33 64 -58 55 -152 -19 -197 -18 -11 -39 -20 -47 -20 -8 1 -2 8
13 16 33 18 47 50 47 105 0 41 -14 53 -23 19 -6 -23 -52 -43 -84 -37 -12 2
-20 0 -17 -4 3 -5 -4 -9 -14 -9 -26 0 -36 -29 -17 -50 8 -9 15 -22 15 -28 0
-7 7 -13 15 -13 8 -1 21 -2 28 -3 6 0 13 -17 15 -36 12 -169 85 -370 170 -469
34 -39 45 -45 83 -48 132 -8 356 78 573 221 77 51 86 54 110 43 14 -7 26 -15
26 -18 0 -3 -11 -39 -25 -80 -61 -176 -90 -386 -65 -473 12 -43 14 -45 57 -52
64 -9 131 2 245 43 87 31 102 33 114 21 13 -13 5 -28 -63 -119 -88 -118 -273
-398 -273 -414 -1 -5 -8 9 -16 32 l-14 42 47 78 c26 43 85 125 132 183 46 58
75 97 65 88 -67 -59 -329 -154 -406 -146 -41 4 -49 30 -49 168 0 125 24 246
73 378 20 50 34 92 33 92 -2 0 -18 -14 -36 -32 -43 -40 -196 -141 -273 -180
-76 -39 -189 -72 -294 -87 l-83 -12 -137 46 c-163 55 -202 72 -202 88 0 7 4 6
10 -3 17 -27 22 -2 11 47 -9 35 -9 56 -1 73 10 24 10 24 5 -4 -7 -32 14 -94
25 -76 4 6 7 -3 7 -20 0 -17 5 -36 11 -42 8 -8 9 -5 5 11 -3 11 -1 21 5 21 7
0 3 27 -9 71 -11 40 -18 77 -15 83 2 6 5 3 5 -6 1 -24 42 -130 48 -125 2 3 0
22 -5 43 -20 80 -23 100 -12 84 5 -8 15 -32 21 -54 6 -21 13 -36 15 -33 3 3 1
21 -4 41 -13 46 -1 46 22 0 9 -20 19 -34 22 -31 3 3 1 14 -4 24 -18 34 -52
212 -54 287 -2 42 -5 76 -8 76 -3 0 -13 -12 -22 -27 -27 -45 -143 -157 -205
-199 -78 -52 -86 -60 -33 -34 25 12 62 38 82 58 63 60 52 30 -12 -34 -65 -64
-147 -119 -195 -129 -16 -4 -25 -3 -20 2 6 4 16 16 24 25 12 16 7 16 -45 -3
-122 -41 -129 -41 -182 1 -61 47 -124 119 -174 195 -48 73 -122 224 -139 285
-20 71 -29 69 -29 -6 0 -38 -9 -161 -20 -274 -11 -113 -20 -211 -20 -217 0 -8
-13 -13 -33 -13 -18 0 -43 -7 -55 -16 -28 -19 -28 -29 3 193 43 308 76 638 63
642 -6 2 -24 16 -41 30 -23 22 -31 38 -34 77 -7 68 15 110 70 135 51 22 58 23
101 5z m2105 -612 c33 -27 53 -80 44 -116 -14 -58 -94 -120 -136 -105 -6 2 5
9 26 16 38 13 67 51 67 89 0 30 -11 33 -38 12 -18 -15 -40 -20 -84 -20 l-58 0
6 -27 c7 -25 6 -27 -9 -14 -23 19 -32 75 -17 111 33 80 136 107 199 54z
m-1774 -548 c508 -83 960 -245 1285 -462 123 -81 290 -237 319 -297 22 -45 18
-91 -12 -131 -11 -16 -14 -14 -29 21 -50 112 -284 300 -524 421 -443 223
-1054 371 -1483 360 -145 -3 -140 -6 -121 64 6 20 18 39 28 42 35 10 449 -3
537 -18z m2115 -95 c35 -66 -36 -163 -97 -135 -15 6 -13 8 9 12 25 3 74 49 64
59 -9 10 -76 11 -82 2 -3 -5 -10 -7 -15 -4 -5 3 -6 -1 -2 -10 4 -13 1 -16 -13
-13 -15 3 -19 12 -18 41 1 42 33 84 68 89 27 5 73 -17 86 -41z m-3350 -5 c90
-2 150 -9 180 -20 25 -8 68 -16 97 -16 67 0 239 -35 269 -55 13 -8 39 -15 58
-15 44 0 220 -63 260 -93 17 -13 44 -24 59 -25 38 -3 124 -46 162 -81 17 -16
43 -32 59 -35 66 -16 172 -95 162 -121 -4 -11 2 -15 23 -15 29 0 89 -38 131
-85 65 -71 116 -104 176 -114 32 -5 68 -13 79 -17 18 -7 19 -6 6 9 -10 13 4 9
48 -12 35 -16 65 -32 69 -35 3 -3 12 -6 21 -6 21 1 -24 40 -45 40 -8 0 -38 13
-68 28 -29 16 -64 32 -77 37 -24 7 -24 7 6 14 27 6 23 8 -40 25 -107 27 -107
31 -9 34 71 2 115 -3 200 -23 59 -15 116 -31 126 -36 38 -20 17 11 -22 33
-111 64 35 31 174 -39 37 -19 70 -33 72 -30 2 2 -7 14 -21 27 -64 60 2 34 108
-42 40 -29 67 -43 67 -34 0 7 -7 19 -15 26 -8 7 -15 17 -15 21 0 17 63 -23
115 -72 57 -54 81 -63 69 -27 -6 21 -5 22 10 8 10 -7 31 -34 48 -58 30 -44 50
-52 28 -12 -22 41 11 17 34 -25 12 -21 38 -47 57 -57 19 -10 60 -42 91 -72 44
-41 60 -65 69 -100 6 -25 16 -50 23 -55 6 -5 47 -22 91 -37 230 -78 559 -231
762 -353 166 -99 273 -205 273 -269 0 -31 -29 -134 -42 -147 -6 -6 -7 9 -2 43
4 36 3 52 -5 52 -6 0 -11 9 -11 19 0 11 -4 22 -9 25 -5 3 -12 -22 -15 -56 l-7
-62 -31 62 c-20 43 -43 73 -70 92 -67 49 -105 56 -202 38 -10 -1 -23 5 -29 14
-9 13 -7 22 8 38 25 28 7 41 -44 29 -38 -8 -91 -58 -91 -85 0 -21 50 -67 94
-88 20 -9 66 -24 103 -32 121 -28 210 -80 252 -148 24 -37 28 -103 9 -128 -13
-16 -88 -26 -308 -42 -74 -5 -251 15 -355 40 -112 27 -182 15 -219 -38 -24
-34 -19 -52 19 -72 30 -16 41 -18 74 -8 52 16 169 15 266 -3 47 -8 146 -14
241 -15 89 0 186 -5 215 -11 30 -6 62 -12 72 -13 29 -4 51 -33 51 -68 0 -18
-16 -69 -34 -113 -27 -64 -46 -93 -97 -143 -39 -38 -71 -62 -82 -60 -9 2 -28
-4 -42 -13 -42 -28 -157 -48 -236 -42 -40 3 -73 9 -73 14 0 4 -28 18 -62 30
-81 30 -56 37 31 9 76 -24 176 -25 266 -1 70 19 91 30 142 75 40 35 90 112 80
122 -2 2 -12 -14 -22 -36 -10 -22 -25 -46 -33 -52 -8 -7 -3 10 12 39 34 68 33
76 -4 33 -30 -35 -30 -35 -20 -6 14 39 5 45 -14 9 -14 -29 -46 -62 -46 -49 0
4 8 19 17 34 l17 27 -33 -30 c-30 -27 -32 -27 -21 -7 17 34 5 39 -16 6 -17
-26 -103 -74 -133 -74 -8 0 5 14 27 30 60 43 57 70 -3 30 -41 -27 -53 -25 -25
5 13 14 19 25 13 25 -6 0 -16 -7 -24 -16 -22 -27 -66 -44 -111 -43 l-43 0 48
16 c26 9 47 20 47 24 0 13 -23 11 -63 -6 -41 -17 -71 -20 -62 -6 3 6 -10 8
-32 5 l-38 -4 40 19 40 19 -87 -5 c-49 -3 -88 -2 -88 2 0 10 40 45 52 45 4 0
8 4 8 10 0 6 -9 6 -26 0 -34 -13 -39 -13 -24 5 21 25 -2 17 -32 -12 -15 -15
-28 -22 -28 -16 0 6 18 26 39 45 l39 33 -101 -32 c-105 -34 -132 -40 -107 -22
17 12 10 10 -45 -15 -35 -16 -37 -19 -22 -30 14 -11 10 -16 -34 -36 -67 -32
-73 -45 -9 -21 42 16 49 17 38 4 -11 -14 -10 -15 12 -8 14 4 40 13 58 21 17 7
32 9 32 3 0 -5 -4 -9 -8 -9 -5 0 -17 -7 -28 -15 -17 -14 -15 -14 19 -1 20 8
37 13 37 11 0 -2 -22 -17 -50 -34 -61 -38 -65 -49 -7 -21 41 21 42 21 17 1
-14 -11 -29 -21 -34 -21 -5 0 -7 -3 -4 -6 4 -3 20 2 37 10 46 24 50 19 8 -10
-38 -25 -161 -69 -337 -119 -132 -38 -140 -39 -96 -15 64 36 121 80 102 80 -9
0 -69 -27 -134 -59 -126 -63 -243 -113 -249 -107 -2 2 18 15 46 29 28 13 47
28 43 31 -3 4 2 4 11 0 12 -4 17 -2 15 6 -2 7 14 22 34 33 21 11 34 25 31 30
-4 6 0 8 11 4 10 -4 15 -3 11 3 -3 5 4 14 16 20 33 18 16 22 -24 5 -54 -23
-58 -17 -7 10 l45 24 -40 -6 c-22 -3 -48 -10 -58 -15 -10 -5 -21 -7 -24 -4 -6
6 71 41 115 53 l27 7 -27 6 -28 5 39 21 c29 16 38 18 34 7 -9 -22 58 -7 144
32 60 28 77 41 103 81 16 26 27 50 24 53 -3 3 -10 -2 -15 -12 -6 -9 -21 -29
-35 -45 -20 -22 -23 -23 -15 -5 16 32 13 38 -9 18 -11 -10 -20 -13 -20 -7 0 7
-7 12 -15 12 -8 0 -15 -4 -15 -10 0 -5 -7 -10 -16 -10 -13 0 -15 8 -9 47 3 26
9 51 12 57 12 21 -42 -40 -60 -68 -25 -38 -31 -27 -13 25 21 60 19 72 -5 27
-28 -54 -32 -47 -9 15 23 59 27 108 9 90 -7 -7 -27 -38 -46 -70 -19 -32 -32
-49 -30 -37 2 12 0 29 -6 39 -7 13 -6 16 2 11 6 -4 11 -1 11 8 0 8 3 23 7 33
4 13 -3 9 -27 -12 -32 -30 -32 -30 -25 -5 4 14 14 38 22 53 22 43 10 42 -31
-3 -39 -43 -44 -39 -22 15 13 30 13 33 0 28 -17 -6 -54 -74 -54 -100 0 -15 -2
-15 -9 -4 -6 10 -4 27 5 50 18 44 11 53 -11 12 -22 -44 -29 -38 -22 22 5 44 4
49 -7 35 -7 -10 -16 -18 -20 -18 -7 0 12 41 23 50 13 11 31 50 23 50 -14 0
-50 -43 -61 -73 -15 -40 -14 -97 5 -164 26 -94 27 -109 9 -137 -21 -32 -32
-27 -14 6 11 22 11 22 -6 8 -17 -14 -17 -13 -11 10 6 22 4 21 -21 -9 -58 -72
-73 -84 -39 -31 20 30 36 61 36 69 0 8 -12 -4 -27 -27 -17 -27 -30 -37 -34
-30 -5 8 -12 3 -19 -13 -6 -14 -21 -31 -32 -38 -16 -10 -19 -10 -13 1 5 7 -8
-5 -29 -27 l-36 -40 30 53 c26 46 40 102 25 102 -3 0 -35 -32 -72 -70 -43 -46
-69 -67 -74 -59 -5 8 -10 5 -18 -10 -7 -11 -16 -21 -22 -21 -6 0 1 14 15 31
42 50 77 129 58 129 -6 0 -12 -10 -15 -23 -7 -26 -99 -132 -129 -148 -16 -9
-14 -1 12 37 36 51 65 120 73 171 3 17 8 37 12 42 3 6 2 11 -4 11 -5 0 -17
-23 -26 -50 -16 -49 -74 -148 -86 -149 -4 -1 -1 16 7 37 14 40 19 142 6 142
-4 0 -20 -33 -35 -74 -22 -58 -42 -89 -93 -145 -36 -39 -71 -71 -77 -71 -6 0
5 17 25 38 31 31 68 95 68 118 0 3 -19 -22 -42 -57 -24 -34 -63 -79 -88 -98
l-45 -36 46 51 c48 52 74 92 66 100 -3 3 -14 -10 -26 -28 -20 -32 -153 -158
-166 -158 -4 0 6 17 22 38 38 49 85 149 81 170 -2 11 -11 1 -26 -29 -12 -26
-32 -55 -44 -65 l-21 -19 22 42 c21 41 30 127 12 108 -5 -6 -21 -38 -34 -72
-24 -58 -118 -206 -140 -220 -12 -7 -6 3 33 62 50 75 41 78 -13 4 l-18 -24 6
25 c3 14 8 41 10 60 5 34 5 34 -11 -7 -18 -48 -37 -59 -24 -14 4 16 5 44 1 62
l-8 34 -9 -45 c-4 -25 -8 -51 -7 -59 1 -7 -3 -9 -7 -5 -5 5 -4 32 0 59 18 105
20 120 15 110 -3 -5 -14 -48 -25 -95 l-20 -85 6 70 c6 82 9 101 18 136 4 15 1
43 -8 70 -32 92 -14 175 57 254 l36 40 -20 -54 c-11 -29 -18 -55 -16 -58 5 -4
41 55 76 125 29 57 36 49 12 -14 -22 -59 -35 -134 -23 -134 5 0 21 22 36 50
33 60 56 79 27 21 -27 -51 -20 -53 15 -3 14 20 23 28 19 17 -13 -38 -36 -158
-32 -169 3 -6 8 -2 11 9 17 50 115 220 122 212 2 -2 -10 -41 -27 -87 -16 -46
-29 -97 -27 -114 3 -28 5 -27 21 24 11 30 25 62 32 70 7 8 20 29 28 45 l16 30
-5 -35 -6 -35 26 37 c14 20 26 43 27 50 0 7 5 0 9 -16 6 -18 5 -36 -1 -48 -21
-39 -2 -39 24 1 15 22 29 41 31 41 2 0 2 -21 -1 -47 l-4 -48 21 35 21 35 -5
-30 c-3 -16 -8 -41 -11 -55 -3 -14 5 -3 19 23 26 54 41 72 33 42 -13 -48 -17
-95 -9 -95 8 0 17 43 24 108 1 6 6 12 11 12 5 0 7 -16 4 -37 -3 -21 -2 -54 3
-73 9 -32 9 -31 6 15 -4 44 -3 48 10 30 13 -18 14 -18 15 6 1 20 2 21 6 4 3
-11 9 -25 15 -32 5 -6 13 -24 18 -40 l8 -28 1 27 c1 41 -43 135 -68 143 -12 3
-31 29 -47 62 -22 47 -26 71 -28 149 0 50 -4 90 -8 87 -5 -2 -8 -11 -8 -20 0
-13 -3 -13 -15 -3 -13 11 -15 5 -17 -46 l-2 -59 -3 52 c-2 29 1 69 6 90 11 38
6 61 -5 27 -8 -25 -19 -53 -33 -84 l-11 -25 5 28 c9 46 -7 55 -22 11 l-13 -39
5 55 c4 49 9 59 48 95 24 22 36 34 27 28 -9 -7 -20 -13 -25 -13 -4 0 -14 -8
-22 -17 -14 -17 -14 -17 -9 0 3 9 9 25 12 35 8 24 -63 -57 -81 -93 -8 -16 -15
-24 -15 -17 0 7 9 31 21 53 22 43 20 66 -3 30 -7 -12 -16 -21 -21 -21 -4 0 -5
5 -2 10 3 6 1 10 -6 10 -9 0 -8 4 2 13 8 6 21 21 29 32 11 15 7 13 -14 -5 -16
-14 -36 -41 -44 -60 -12 -26 -17 -30 -20 -17 -2 9 -8 14 -14 11 -7 -5 -9 2 -4
22 7 28 7 28 -9 9 -16 -20 -16 -19 -9 5 6 22 5 23 -10 11 -9 -7 -20 -28 -26
-45 l-10 -31 4 30 c2 17 6 39 11 50 5 16 3 15 -14 -5 l-22 -25 16 40 c9 23 11
35 4 28 -6 -6 -20 -36 -31 -65 l-19 -53 5 49 c4 27 11 55 17 62 7 9 8 14 1 14
-5 0 -17 -10 -26 -22 -16 -23 -16 -23 -11 12 6 34 5 34 -10 15 -9 -11 -24 -31
-34 -44 l-17 -23 3 38 3 39 -15 -30 c-14 -30 -14 -30 -15 -5 0 14 8 37 17 50
l17 25 -22 -19 c-25 -21 -34 -58 -36 -150 -1 -52 1 -62 12 -54 8 7 11 23 7 42
-4 22 0 17 14 -17 20 -49 17 -83 -9 -124 -11 -17 -11 -17 -5 2 4 11 9 40 12
65 l4 45 -24 -43 c-17 -32 -46 -59 -107 -100 -45 -31 -90 -68 -99 -82 l-15
-25 28 25 28 25 -23 -45 c-26 -50 -42 -199 -20 -186 6 4 11 17 11 30 0 26 19
87 31 100 5 5 4 -6 -1 -25 -11 -39 -12 -182 -1 -249 6 -39 8 -42 15 -21 4 13
11 72 15 132 7 107 21 161 21 81 0 -22 12 -78 26 -124 32 -99 33 -165 5 -236
-50 -127 -3 -308 113 -432 28 -30 67 -86 85 -123 42 -83 176 -213 202 -195 12
8 11 9 -2 5 -20 -6 -79 52 -104 102 -32 64 -55 144 -55 193 0 43 21 118 34
118 2 0 2 -26 0 -57 l-5 -58 18 46 c10 26 26 57 36 70 15 20 17 20 11 4 -8
-21 -17 -138 -9 -120 2 6 9 28 14 50 11 42 37 81 86 127 32 31 58 39 33 11
-32 -36 -50 -114 -43 -183 9 -84 26 -126 91 -227 30 -46 51 -83 48 -83 -4 0
11 -21 32 -47 l38 -46 -30 7 c-24 5 -26 4 -11 -5 10 -6 25 -8 34 -5 9 4 33 -7
56 -24 23 -16 35 -30 27 -30 -7 0 -23 8 -34 18 -20 16 -20 16 -7 0 11 -15 11
-18 -2 -18 -8 0 -17 5 -19 12 -3 7 -7 5 -11 -6 -4 -10 -3 -15 3 -11 6 3 10 1
10 -4 0 -13 57 -8 71 6 7 7 -6 22 -40 47 -28 21 -60 51 -72 68 -16 21 0 12 58
-35 120 -97 257 -186 269 -175 2 2 -15 26 -38 54 -68 82 -91 123 -78 139 10
12 17 10 46 -11 19 -15 38 -23 46 -18 7 4 10 3 5 -1 -4 -5 3 -20 15 -34 19
-21 20 -23 3 -11 -24 17 -75 56 -92 70 -7 6 -14 6 -18 1 -3 -5 21 -35 52 -67
32 -31 50 -51 39 -43 -16 12 -18 11 -15 -6 3 -11 13 -21 24 -23 11 -2 49 -32
85 -66 36 -35 108 -95 160 -134 104 -78 196 -158 165 -144 -11 5 -27 7 -35 5
-12 -4 -12 -3 -1 5 10 7 -7 25 -70 75 -174 137 -203 156 -218 144 -12 -10 -13
-8 -9 11 4 12 2 20 -3 17 -4 -3 -29 4 -55 15 -25 12 -48 19 -51 16 -7 -6 52
-36 72 -36 8 0 15 -4 15 -10 0 -17 -33 -6 -89 29 -31 19 -50 36 -43 40 6 3 -7
16 -31 30 -41 23 -42 23 -23 2 20 -22 20 -22 0 -14 -10 4 -27 15 -38 24 -19
18 -76 23 -76 7 0 -16 32 -21 41 -7 7 12 11 11 26 -4 17 -17 17 -18 -2 -12
-20 7 -20 6 -1 -9 34 -28 12 -26 -49 5 -50 24 -55 26 -31 7 17 -13 55 -37 85
-55 31 -18 49 -32 41 -32 -8 0 -26 6 -40 14 -28 16 -54 20 -46 6 4 -5 0 -12
-6 -15 -7 -3 -2 -3 11 0 13 3 21 2 18 -2 -3 -5 8 -10 24 -11 17 -1 42 -11 56
-23 31 -24 27 -25 -16 -4 -18 9 -35 13 -38 10 -3 -3 7 -11 23 -17 16 -6 23
-13 16 -16 -8 -3 -5 -11 10 -24 l23 -20 -34 16 c-50 25 -64 5 -25 -36 23 -25
25 -30 9 -24 -11 4 -27 7 -35 8 -8 0 -43 20 -77 44 -62 43 -82 64 -43 43 22
-12 44 -5 35 10 -3 5 -20 8 -38 6 -38 -5 -96 34 -199 133 -38 35 -68 61 -68
56 0 -9 112 -176 167 -250 l38 -50 -50 35 c-164 115 -473 484 -568 680 -17 35
-22 40 -25 24 -7 -48 77 -341 110 -381 6 -8 9 -16 6 -19 -10 -9 -143 156 -194
241 -64 105 -114 239 -121 327 -3 37 -10 65 -14 62 -5 -2 -14 -32 -21 -64 -12
-62 -28 -80 -28 -34 0 24 -11 71 -42 179 l-12 40 -7 -40 c-11 -59 6 -157 46
-267 19 -54 31 -98 27 -98 -12 0 -78 112 -100 170 -53 138 -67 235 -52 356 6
48 9 88 7 91 -8 7 -95 -141 -111 -190 -9 -26 -16 -62 -16 -79 0 -57 -18 -16
-35 77 -24 137 -2 275 64 400 14 28 28 54 30 59 8 19 -92 -71 -121 -109 -17
-22 -28 -31 -24 -20 14 42 73 130 133 198 35 40 63 77 63 83 0 6 10 19 21 30
22 19 22 19 14 -6 -4 -14 -21 -45 -37 -70 l-30 -45 35 36 c19 20 36 42 39 50
3 8 8 11 12 8 4 -4 -2 -33 -14 -65 l-20 -59 46 49 c25 28 50 61 55 74 5 14 12
23 14 20 3 -3 -1 -20 -9 -39 -7 -19 -11 -39 -9 -46 2 -6 -3 -26 -12 -43 -9
-18 -15 -34 -13 -36 8 -7 75 93 88 130 11 35 10 42 -11 80 -13 22 -22 42 -21
44 1 1 -5 16 -14 33 -15 30 -16 30 -35 13 -15 -14 -19 -14 -19 -3 0 18 51 99
62 99 12 0 9 -13 -8 -38 -8 -12 -12 -22 -7 -22 10 0 43 57 43 75 0 8 4 16 8
19 5 3 7 -22 6 -55 l-3 -61 31 48 c18 26 34 42 36 35 2 -7 -2 -20 -10 -29 -28
-32 -31 -47 -5 -23 l26 24 -6 -39 -6 -39 22 19 c12 11 34 39 50 62 l28 43 -2
-39 c-2 -42 5 -49 25 -25 7 8 17 15 23 15 15 0 -22 -38 -44 -45 -11 -4 -19
-11 -19 -16 0 -6 8 -6 20 1 12 6 20 7 20 1 0 -5 -6 -11 -12 -14 -7 -2 -11 -7
-8 -10 11 -11 55 19 78 53 20 29 23 30 17 10 -4 -14 -12 -32 -17 -40 -6 -8 1
-2 16 13 29 31 37 16 9 -16 -20 -22 -4 -17 32 12 11 8 -5 -11 -35 -44 -52 -55
-53 -57 -14 -27 23 18 45 32 49 32 4 0 -27 -37 -70 -81 -76 -81 -129 -166
-123 -196 2 -9 16 11 31 45 29 63 112 166 127 157 4 -3 13 2 20 10 7 8 9 15 6
15 -4 0 -1 10 6 23 7 12 12 27 13 32 0 6 6 10 13 10 16 0 41 42 42 67 0 16
-18 65 -41 110 -12 24 6 66 43 105 27 28 28 31 9 26 -12 -3 -24 -9 -27 -14 -3
-5 -12 -9 -21 -9 -8 0 -26 -9 -40 -20 -15 -11 -29 -18 -32 -15 -3 4 0 10 7 14
7 4 10 15 6 25 -4 10 1 25 11 36 23 26 9 25 -35 -1 -31 -19 -33 -19 -20 -3 8
11 26 29 40 41 33 29 12 29 -31 0 -19 -13 -41 -26 -49 -31 -19 -10 27 33 60
56 l25 18 -30 -11 c-16 -5 -35 -15 -42 -21 -9 -7 -13 -7 -13 1 0 6 9 16 20 23
11 7 20 16 20 21 0 13 -38 -12 -76 -51 l-37 -37 19 34 c10 18 38 47 62 64 23
17 42 32 42 34 0 1 -24 -6 -52 -17 -74 -28 -73 -24 2 16 54 29 59 34 32 30
-57 -10 -25 12 36 24 31 6 69 13 85 16 21 4 27 2 28 -13 0 -10 3 -13 6 -5 2 6
9 12 14 12 4 0 5 -8 2 -17 -5 -13 -2 -15 11 -10 13 5 17 3 13 -7 -4 -10 -1
-13 9 -9 7 3 14 1 14 -5 0 -26 86 -64 193 -87 29 -6 74 13 97 40 12 15 12 17
-5 14 -59 -9 -149 20 -212 68 -49 36 -40 43 19 14 75 -37 163 -36 281 3 l89
29 108 -37 c59 -20 111 -36 115 -36 18 0 -43 53 -85 75 -57 29 -146 108 -166
147 -22 43 -9 47 16 5 12 -20 27 -34 34 -31 7 3 21 -4 31 -16 13 -15 31 -20
64 -20 36 0 60 -8 104 -36 61 -38 70 -49 35 -40 -15 4 -12 1 7 -9 17 -8 37
-15 45 -16 8 0 4 -5 -10 -9 -24 -8 -24 -8 -2 -9 23 -1 32 -20 10 -22 -10 0
-10 -2 0 -6 10 -4 10 -9 -3 -23 -15 -16 -14 -17 11 -12 20 4 25 2 19 -8 -6
-10 -1 -11 21 -6 28 7 28 7 10 -12 -17 -20 -17 -20 16 -12 18 4 42 11 53 14
11 3 0 -3 -23 -15 -48 -23 -52 -36 -6 -18 53 21 85 28 79 18 -8 -11 7 -12 37
0 13 5 49 17 81 27 31 10 57 24 57 31 0 7 10 13 23 14 12 0 31 4 42 9 12 5
-13 7 -65 3 -47 -3 -96 -1 -109 4 -21 8 -15 11 38 16 100 11 108 26 11 21 -86
-4 -95 -1 -27 11 60 10 43 23 -40 30 -43 4 -91 10 -108 15 -26 7 -23 8 24 9
66 1 59 13 -12 21 l-52 6 65 9 65 8 -73 13 c-80 13 -114 30 -44 21 23 -3 42
-4 42 -2 0 2 -25 15 -55 29 -61 28 -70 39 -25 30 29 -6 44 10 18 19 -20 7 108
20 130 13 13 -5 19 -1 19 10 0 11 -34 33 -101 65 -55 26 -102 46 -105 43 -3
-2 11 -20 29 -39 19 -19 30 -35 26 -35 -14 0 -51 23 -81 50 -16 15 -39 30 -50
34 -14 4 -11 -1 10 -19 58 -48 7 -24 -75 35 -83 60 -140 84 -80 34 40 -34 31
-43 -12 -11 -39 29 -89 53 -138 67 l-35 9 23 -18 c28 -24 29 -35 0 -20 -21 11
-106 15 -116 5 -2 -3 17 -10 42 -17 53 -13 149 -72 186 -115 l25 -28 -30 18
c-25 14 -24 11 10 -19 22 -20 31 -33 21 -29 -14 5 -17 4 -12 -4 9 -15 1 -15
-27 0 -20 10 -21 10 -8 -5 18 -23 5 -21 -26 3 -31 24 -51 26 -32 3 13 -15 12
-16 -11 -9 -50 15 -144 26 -153 17 -4 -4 9 -11 31 -15 38 -6 92 -39 92 -56 0
-6 -12 -5 -27 1 -47 18 -158 -5 -267 -55 -84 -39 -145 -60 -153 -53 -2 3 19
31 49 61 56 58 61 69 18 39 -22 -15 -24 -15 -12 -1 8 10 29 22 48 28 19 6 34
15 34 20 0 11 -44 -2 -100 -29 l-45 -23 30 26 c46 39 16 31 -34 -9 -48 -38
-61 -44 -40 -18 12 15 12 16 -1 8 -8 -4 -28 -17 -43 -28 -35 -24 -48 -14 -16
12 13 11 21 22 18 25 -3 3 -32 -17 -65 -45 -64 -55 -109 -84 -86 -57 10 13 7
15 -28 13 -39 -2 -40 -2 -24 17 10 10 39 35 66 55 54 41 56 53 6 27 -54 -28
-18 7 58 56 63 41 84 68 44 55 -11 -3 -20 -3 -20 2 0 9 103 53 125 53 8 0 15
4 15 8 0 4 -17 7 -37 5 l-38 -3 30 14 c17 8 62 22 100 32 69 16 106 34 71 34
-9 0 -14 5 -11 10 3 6 25 10 48 11 23 0 51 4 62 9 15 6 8 9 -30 10 -39 2 -44
4 -25 9 24 7 24 8 -9 15 -38 9 -136 -1 -166 -17 -18 -9 -19 -9 -5 8 14 17 13
17 -10 10 -49 -14 -126 -55 -183 -96 -31 -23 -59 -40 -61 -38 -2 2 27 31 64
64 38 32 68 60 67 62 -2 1 -18 -3 -37 -10 -39 -14 -98 -51 -150 -96 -61 -52
-79 -2 -27 74 32 46 165 155 247 201 38 21 70 42 70 46 0 16 -157 -50 -265
-111 -22 -12 -31 -16 -21 -9 10 7 31 23 45 36 52 47 -74 -27 -136 -79 -31 -27
-60 -49 -63 -49 -3 1 -25 19 -50 42 l-45 40 55 50 c68 61 197 149 287 193 81
41 65 45 -37 9 -121 -42 -231 -105 -302 -172 -46 -44 -47 -45 -70 -28 -13 9
-42 29 -65 44 -24 15 -43 30 -43 34 0 27 234 194 332 236 32 14 56 27 54 29
-2 2 -30 -3 -62 -12 -96 -24 -256 -109 -322 -169 l-58 -54 -24 19 c-25 19 -90
53 -122 63 -23 7 -14 30 20 52 15 9 59 40 97 69 84 62 141 94 218 125 32 12
56 25 53 27 -8 9 -119 -19 -188 -47 -90 -37 -168 -84 -230 -139 -49 -44 -50
-44 -81 -29 -18 8 -58 23 -89 32 -32 9 -58 20 -58 24 0 14 84 90 161 144 42
30 105 65 140 78 82 30 97 43 39 34 -134 -20 -257 -80 -348 -170 -78 -78 -76
-77 -162 -46 -8 3 -18 4 -22 4 -4 -1 -30 3 -58 9 l-49 11 16 24 c42 66 200
172 316 214 l52 20 -60 -6 c-148 -14 -299 -98 -376 -210 -28 -41 -29 -42 -68
-33 -22 5 -74 8 -115 6 -50 -1 -76 2 -76 9 0 45 134 165 252 227 l73 38 -45
-6 c-68 -10 -218 -85 -277 -139 -28 -25 -63 -66 -78 -91 -24 -41 -29 -45 -68
-47 -23 0 -50 0 -61 1 -10 0 -24 -3 -30 -7 -6 -5 -26 -12 -44 -15 l-32 -7 15
38 c9 20 28 53 44 72 35 44 134 125 184 151 55 29 41 32 -33 8 -120 -39 -223
-126 -275 -232 -24 -50 -38 -62 -67 -58 -4 0 -26 -6 -49 -14 -23 -9 -44 -13
-46 -11 -3 2 8 30 23 61 17 38 54 85 105 136 44 44 73 79 66 79 -26 0 -132
-76 -178 -128 -42 -46 -74 -101 -100 -170 -5 -13 -13 -21 -18 -17 -11 6 -58
-13 -83 -33 -43 -36 -5 73 54 155 13 18 46 49 73 69 45 33 47 35 20 30 l-30
-6 28 25 c41 37 19 31 -49 -13 -103 -67 -167 -147 -203 -255 -14 -41 -23 -51
-60 -68 l-44 -19 7 31 c10 52 34 92 97 162 33 37 58 67 55 67 -13 0 -82 -49
-107 -76 -40 -44 -76 -104 -90 -152 -12 -43 -57 -92 -84 -92 -7 0 -15 -6 -18
-12 -2 -7 -8 -10 -12 -6 -4 3 0 30 9 60 14 51 62 123 142 216 27 30 32 42 20
42 -9 0 -21 -9 -28 -20 -7 -11 -21 -20 -31 -20 -10 0 -45 -25 -78 -57 -32 -31
-59 -52 -59 -48 0 17 -54 -42 -91 -99 -26 -38 -41 -75 -45 -108 -4 -27 -12
-55 -19 -62 -7 -6 -15 -21 -19 -33 -4 -11 -15 -28 -26 -38 -20 -18 -20 -17
-20 27 0 56 32 150 75 222 18 31 31 56 28 56 -14 0 -98 -79 -122 -114 -41 -61
-54 -113 -49 -199 3 -71 2 -77 -19 -86 -13 -6 -23 -15 -23 -21 0 -5 -5 -10
-11 -10 -18 0 -5 144 19 215 11 33 18 62 16 65 -6 6 -47 -44 -78 -95 -13 -23
-34 -70 -46 -105 -19 -57 -20 -72 -11 -119 6 -30 11 -60 11 -68 0 -23 -19 -14
-26 12 -10 39 -24 29 -24 -17 0 -30 -7 -52 -24 -73 l-24 -30 -7 46 c-7 49 15
157 54 259 25 66 10 54 -50 -37 -27 -42 -49 -69 -49 -62 0 32 -42 -32 -56 -85
-8 -32 -26 -75 -39 -95 -13 -20 -26 -51 -30 -68 -4 -18 -11 -35 -16 -38 -12
-8 -11 2 1 44 15 54 3 49 -25 -10 -16 -36 -25 -72 -25 -106 0 -32 -4 -53 -11
-53 -6 0 -8 -7 -5 -16 16 -42 19 -67 6 -59 -7 4 -16 2 -21 -6 -6 -9 -7 0 -3
26 5 30 3 37 -5 29 -19 -18 -54 -127 -55 -176 -1 -26 -4 -50 -8 -54 -4 -3 2
-24 13 -46 15 -29 18 -43 10 -51 -8 -8 -11 -5 -11 11 0 33 -14 26 -29 -14 -28
-77 -11 -186 33 -224 11 -9 13 -16 6 -25 -5 -7 -11 -24 -12 -39 -1 -14 -6 -26
-11 -26 -6 0 -7 16 -4 36 6 38 0 64 -14 64 -5 0 -9 -32 -9 -71 0 -55 5 -79 21
-105 11 -19 25 -34 30 -34 5 0 9 -4 9 -9 0 -5 -8 -7 -18 -4 -17 4 -18 -1 -11
-59 6 -54 12 -67 38 -89 24 -19 31 -34 31 -60 0 -26 -3 -30 -10 -19 -5 8 -10
25 -10 38 0 12 -5 22 -11 22 -6 0 -8 -7 -5 -16 3 -9 6 -23 6 -33 0 -10 16 -36
36 -59 19 -23 28 -39 20 -36 -20 8 -20 -2 2 -46 9 -19 27 -40 40 -46 34 -17
40 -28 12 -21 -22 5 -23 5 -7 -7 9 -7 18 -28 20 -47 2 -28 9 -37 40 -52 35
-16 53 -35 22 -23 -19 7 -19 4 6 -49 25 -54 90 -125 114 -125 11 0 15 -6 11
-18 -9 -27 50 -91 108 -118 39 -18 45 -23 27 -23 l-25 -1 28 -29 c16 -16 35
-27 42 -24 8 3 14 0 14 -6 0 -12 77 -71 93 -71 5 0 4 7 -3 15 -28 34 10 12 57
-33 31 -30 66 -53 94 -61 24 -7 59 -21 77 -32 37 -21 46 -24 37 -9 -10 16 11
12 72 -15 39 -18 73 -25 108 -24 27 1 72 -5 98 -12 39 -10 57 -10 100 1 29 7
76 14 106 15 29 2 56 7 60 12 3 6 24 13 46 17 53 10 43 2 -30 -23 -186 -65
-460 -51 -653 35 -207 91 -432 270 -528 419 -10 16 -29 39 -41 51 -11 12 -31
41 -44 65 -12 24 -32 58 -45 74 -32 42 -83 154 -87 191 -2 17 -13 41 -25 54
-12 13 -28 53 -37 93 -9 38 -21 79 -27 90 -5 11 -14 54 -18 96 -5 42 -16 103
-25 136 -15 51 -16 69 -5 127 6 37 9 76 5 88 -13 41 -6 129 13 172 11 26 19
68 20 104 1 70 29 154 72 213 21 28 30 53 30 78 0 21 11 62 25 91 40 85 166
273 196 291 16 10 47 45 70 80 61 92 225 231 271 231 8 0 31 20 51 45 21 25
64 63 96 85 57 38 299 160 318 160 5 0 47 20 94 44 94 49 204 86 255 86 19 0
57 11 83 25 27 13 73 29 103 34 29 5 100 19 158 31 58 12 122 19 143 17 21 -3
53 -1 70 5 49 15 185 27 257 22 36 -2 126 -6 200 -8z m2144 -55 c4 -5 -3 -7
-14 -4 -23 6 -26 13 -6 13 8 0 17 -4 20 -9z m-3769 -505 c-12 -24 -28 -75 -35
-113 -12 -62 -22 -82 -42 -83 -11 0 -10 38 2 81 9 32 84 159 93 159 3 0 -6
-20 -18 -44z m1112 -98 c-2 -13 -4 -3 -4 22 0 25 2 35 4 23 2 -13 2 -33 0 -45z
m40 0 c-3 -7 -5 -2 -5 12 0 14 2 19 5 13 2 -7 2 -19 0 -25z m140 10 c-3 -8 -6
-5 -6 6 -1 11 2 17 5 13 3 -3 4 -12 1 -19z m-699 -171 c17 -38 41 -83 53 -100
l21 -32 -24 25 c-12 14 -31 37 -41 50 -17 25 -17 25 -2 -7 8 -17 11 -34 6 -37
-4 -3 -14 13 -21 35 -8 22 -18 43 -23 46 -6 3 -7 1 -3 -5 4 -7 2 -12 -3 -12
-18 0 -13 -15 26 -71 24 -36 29 -47 14 -34 -23 20 -101 146 -101 162 1 4 8 -4
16 -19 21 -39 38 -36 29 5 -5 17 -9 66 -10 107 l-2 75 16 -60 c9 -33 31 -91
49 -128z m-181 141 c-3 -8 -6 -5 -6 6 -1 11 2 17 5 13 3 -3 4 -12 1 -19z
m1243 2 c-6 -11 -13 -20 -16 -20 -2 0 0 9 6 20 6 11 13 20 16 20 2 0 0 -9 -6
-20z m-473 -12 c-3 -8 -6 -5 -6 6 -1 11 2 17 5 13 3 -3 4 -12 1 -19z m-498
-48 c0 -9 -4 -8 -9 5 -5 11 -9 27 -9 35 0 9 4 8 9 -5 5 -11 9 -27 9 -35z m264
30 c3 -11 1 -20 -4 -20 -5 0 -9 9 -9 20 0 11 2 20 4 20 2 0 6 -9 9 -20z m-514
-21 c1 14 94 -159 112 -209 8 -23 8 -23 -5 -7 -8 10 -17 14 -20 8 -3 -5 1 -17
10 -26 9 -9 14 -19 10 -22 -21 -21 -115 161 -121 237 -3 40 -2 48 4 30 5 -14
9 -19 10 -11z m340 -9 c0 -10 -3 -8 -9 5 -12 27 -12 43 0 25 5 -8 9 -22 9 -30z
m-128 -45 c4 -5 10 -24 13 -42 4 -17 21 -51 38 -75 21 -29 24 -37 10 -24 -29
25 -79 132 -86 182 l-5 39 12 -35 c6 -19 15 -39 18 -45z m366 53 c-3 -8 -6 -5
-6 6 -1 11 2 17 5 13 3 -3 4 -12 1 -19z m180 0 c-3 -8 -6 -5 -6 6 -1 11 2 17
5 13 3 -3 4 -12 1 -19z m-297 -23 c0 -5 -5 -3 -10 5 -5 8 -10 20 -10 25 0 6 5
3 10 -5 5 -8 10 -19 10 -25z m-232 0 c-3 -3 -9 2 -12 12 -6 14 -5 15 5 6 7 -7
10 -15 7 -18z m1262 2 c0 -2 -17 -19 -37 -38 -34 -30 -35 -31 -13 -4 29 35 50
52 50 42z m-1740 -47 c0 -23 49 -122 72 -147 11 -12 17 -26 14 -31 -6 -10 17
-35 25 -28 2 3 20 -9 39 -26 19 -16 29 -27 23 -23 -7 3 -22 1 -34 -5 -17 -9
-24 -8 -40 6 -10 9 -21 15 -24 12 -7 -6 85 -78 99 -78 6 0 -2 11 -19 25 -16
13 -25 25 -20 26 53 8 62 5 100 -28 29 -25 31 -30 10 -16 -49 32 -53 34 -60
23 -3 -5 10 -16 30 -24 19 -8 35 -18 35 -21 0 -3 -9 -1 -19 5 -25 13 -44 13
-36 0 13 -21 -24 -9 -66 21 l-44 32 29 -32 c55 -57 7 -32 -57 32 -69 67 -133
180 -143 252 -5 35 -1 30 35 -42 44 -90 63 -112 30 -37 -25 60 -18 68 9 10 12
-24 25 -47 30 -50 13 -8 7 32 -11 74 -17 43 -31 122 -17 100 5 -8 10 -22 10
-30z m514 24 c3 -8 2 -12 -4 -9 -6 3 -10 10 -10 16 0 14 7 11 14 -7z m-289
-129 c21 -33 64 -87 94 -120 l55 -60 -53 50 c-30 28 -51 42 -48 32 6 -15 4
-16 -14 -6 -11 6 -23 8 -26 5 -3 -3 -12 2 -20 10 -19 19 -9 31 11 15 8 -7 2
12 -15 42 -28 52 -60 140 -58 162 0 6 8 -8 18 -30 10 -22 35 -67 56 -100z
m335 125 c0 -5 -2 -10 -4 -10 -3 0 -8 5 -11 10 -3 6 -1 10 4 10 6 0 11 -4 11
-10z m120 -45 c0 -5 -5 -3 -10 5 -5 8 -10 20 -10 25 0 6 5 3 10 -5 5 -8 10
-19 10 -25z m1040 21 c0 -2 -8 -10 -17 -17 -16 -13 -17 -12 -4 4 13 16 21 21
21 13z m-1201 -66 c11 -24 11 -24 -3 -6 -9 11 -16 24 -16 30 0 12 5 7 19 -24z
m31 10 c6 -11 8 -20 6 -20 -3 0 -10 9 -16 20 -6 11 -8 20 -6 20 3 0 10 -9 16
-20z m-358 -114 c-4 -12 29 -47 39 -40 5 3 19 -2 31 -10 12 -9 17 -16 11 -16
-7 0 -15 5 -18 10 -3 6 -12 10 -18 10 -7 -1 -1 -10 12 -20 13 -11 18 -20 13
-20 -6 0 -14 5 -17 10 -3 6 -11 10 -17 10 -6 0 -3 -10 8 -22 10 -13 -1 -7 -25
13 -25 20 -47 42 -49 50 -3 8 9 1 27 -15 17 -17 31 -26 31 -22 0 10 -51 51
-64 51 -16 0 -69 82 -63 96 4 10 8 7 12 -8 4 -12 13 -24 21 -27 12 -5 12 -1
-1 24 -25 48 -17 45 27 -12 24 -29 42 -57 40 -62z m-502 49 c5 3 19 -14 31
-37 40 -78 149 -201 165 -185 3 3 -8 26 -26 51 -28 42 -60 106 -60 121 0 4 23
-22 51 -57 27 -35 69 -74 92 -88 l42 -25 -44 52 c-26 32 -40 56 -35 64 4 7 3
10 -3 6 -5 -3 -19 15 -32 40 -25 51 -23 67 3 28 55 -84 162 -182 257 -235 57
-33 31 -31 -34 2 -22 11 -41 18 -43 16 -2 -3 24 -18 59 -36 34 -17 55 -31 47
-31 -17 -1 -76 13 -105 24 -13 5 -17 5 -10 -2 6 -5 32 -18 58 -27 61 -23 56
-30 -8 -11 -64 20 -73 19 -44 -4 13 -10 48 -24 77 -31 62 -14 69 -25 10 -15
-107 18 -212 66 -297 134 -68 55 -155 181 -163 236 -3 17 -3 24 -1 17 3 -7 9
-10 13 -7z m811 -52 c13 -16 12 -17 -3 -4 -10 7 -18 15 -18 17 0 8 8 3 21 -13z
m-869 -70 c24 -27 59 -64 79 -84 55 -54 222 -150 314 -181 86 -29 83 -37 -5
-14 -76 20 -75 12 1 -13 62 -20 63 -20 19 -16 l-45 5 35 -14 35 -14 -30 -4
-30 -5 33 -2 c17 0 32 -4 32 -9 0 -12 -141 4 -189 22 -60 22 -158 94 -219 161
-52 56 -120 181 -107 193 4 4 10 2 12 -5 2 -7 10 -10 18 -7 8 4 24 -10 41 -35
15 -23 29 -41 31 -41 9 0 -34 63 -54 80 -21 17 -29 30 -18 30 2 0 24 -21 47
-47z m783 9 c-3 -3 -11 0 -18 7 -9 10 -8 11 6 5 10 -3 15 -9 12 -12z m-961
-104 c4 1 27 -24 52 -55 48 -61 106 -116 139 -135 20 -11 20 -10 0 13 -48 56
-47 60 4 20 102 -80 217 -126 347 -140 l79 -8 -77 -2 c-81 -1 -107 -17 -40
-24 37 -4 36 -4 -8 -6 l-45 -3 40 -14 40 -14 -40 5 c-32 3 -36 2 -21 -7 10 -6
39 -8 64 -5 25 3 39 1 31 -3 -31 -20 -129 -22 -211 -5 -98 20 -246 89 -303
140 -29 26 -33 33 -15 24 l25 -12 -25 28 c-22 24 -17 23 35 -12 69 -46 145
-86 151 -80 3 2 -13 16 -33 30 -59 41 -99 77 -86 77 6 0 15 -4 18 -10 3 -5 15
-15 26 -20 11 -6 -9 17 -43 52 -63 63 -139 179 -137 208 0 8 7 2 14 -15 7 -16
16 -29 19 -27z m4346 20 c10 -6 3 -7 -20 -2 -19 3 -39 10 -45 16 -12 11 42 0
65 -14z m-1443 -19 c-21 -11 -35 -24 -33 -28 7 -10 -18 -33 -59 -54 -49 -26
-5 -19 54 8 68 32 50 5 -21 -31 -56 -29 -64 -41 -11 -19 65 27 47 7 -28 -30
-62 -32 -78 -36 -118 -31 -43 6 -45 5 -27 -9 19 -15 19 -15 -1 -15 -12 0 -25
-5 -29 -11 -4 -8 -31 -10 -83 -6 l-76 6 45 -15 c25 -8 55 -15 68 -16 18 0 21
-5 16 -22 -6 -20 -5 -20 11 2 29 40 34 23 7 -25 -14 -26 -28 -41 -30 -35 -2 8
-11 4 -24 -10 -11 -13 -17 -18 -14 -11 4 6 -13 1 -36 -11 -74 -41 -113 -49
-155 -35 l-38 13 44 8 c40 7 98 35 89 43 -2 2 -32 -3 -68 -12 -78 -18 -125
-13 -203 21 -31 14 -57 27 -57 28 0 2 24 1 52 -1 29 -1 49 1 45 5 -16 17 -96
41 -120 37 -14 -3 -33 0 -44 6 -14 8 -10 9 22 6 l40 -5 -43 20 c-23 12 -66 24
-95 27 -41 5 -47 8 -27 13 21 6 17 8 -28 18 -87 20 -206 15 -320 -13 -96 -23
-202 -67 -202 -83 0 -4 55 -22 123 -41 179 -49 227 -64 222 -69 -2 -3 -30 3
-61 13 -31 10 -69 19 -85 20 -16 1 -32 5 -36 9 -3 3 -13 6 -22 6 -12 0 -11 -3
4 -13 30 -20 57 -29 49 -16 -4 8 1 9 17 4 85 -25 129 -41 129 -48 0 -5 -4 -5
-10 -2 -5 3 -10 1 -10 -5 0 -6 6 -10 13 -9 6 1 30 0 52 -1 l40 -3 -45 -6 c-25
-3 -57 -2 -72 4 -30 10 -39 28 -10 19 9 -3 6 2 -8 10 -14 8 -34 15 -45 15 -18
0 -18 -1 3 -10 13 -5 21 -13 18 -18 -8 -13 50 -41 84 -41 14 0 35 -7 46 -16
18 -15 18 -15 -3 -9 -13 4 -33 8 -45 11 -13 2 -54 13 -92 24 -38 11 -71 18
-74 16 -4 -5 144 -52 192 -61 62 -13 15 -14 -67 -2 -48 7 -83 9 -79 5 5 -5 32
-11 60 -15 28 -3 49 -9 46 -14 -2 -4 15 -13 38 -19 69 -18 108 -31 108 -37 0
-3 -10 -2 -22 2 -33 9 -158 32 -158 28 0 -10 62 -28 137 -39 26 -4 51 -12 55
-18 4 -7 37 -11 80 -10 l73 1 -53 -10 c-41 -8 -65 -7 -108 5 -68 19 -59 7 11
-16 76 -24 134 -29 199 -17 33 6 61 9 64 6 3 -2 -15 -8 -39 -12 -42 -7 -43 -7
-14 -13 60 -11 154 6 228 43 l72 35 -35 -29 c-19 -16 -28 -29 -21 -29 14 0 94
44 126 69 14 11 12 7 -5 -13 l-25 -29 40 23 c22 13 49 30 59 39 18 15 18 15 8
-4 -5 -11 -38 -40 -71 -64 -34 -25 -61 -46 -61 -48 0 -5 35 14 84 44 54 34 36
12 -21 -26 -56 -37 -46 -41 16 -6 58 34 64 31 13 -6 -89 -66 -323 -127 -437
-114 -153 16 -294 69 -424 157 -157 106 -351 307 -351 362 0 60 167 155 365
208 65 18 108 22 235 23 137 0 167 -3 260 -27 170 -44 247 -58 318 -57 65 1
66 2 30 12 -43 12 -50 27 -14 27 20 0 137 35 221 66 44 16 -3 -17 -51 -36 -32
-12 -41 -19 -27 -20 13 0 53 11 90 25 37 14 73 23 80 21 7 -3 32 4 55 14 56
26 84 25 35 -1z m-2177 -19 c8 -5 11 -10 5 -10 -5 0 -17 5 -25 10 -8 5 -10 10
-5 10 6 0 17 -5 25 -10z m-934 -148 l-13 -25 -11 34 c-11 35 -15 70 -13 104 2
13 11 1 26 -33 22 -48 23 -57 11 -80z m3922 56 c21 -21 15 -40 -10 -32 -13 4
-54 7 -92 6 -49 -1 -66 2 -59 9 25 25 141 37 161 17z m-586 -40 c-7 -7 -12 -8
-12 -2 0 14 12 26 19 19 2 -3 -1 -11 -7 -17z m-72 8 c0 -8 -71 -48 -76 -43 -3
2 10 14 28 26 32 20 48 26 48 17z m-2996 -206 c124 -62 230 -89 350 -92 90 -1
90 -2 26 -7 -62 -6 -63 -6 -30 -15 19 -4 49 -8 65 -7 24 0 20 -3 -20 -16 -56
-18 -47 -30 11 -14 21 6 40 9 42 6 2 -2 -20 -11 -50 -19 -60 -18 -173 -22
-263 -11 -109 14 -259 76 -296 122 -13 17 -12 17 15 -1 16 -10 25 -12 21 -5
-6 9 -3 10 11 5 35 -14 199 -56 214 -55 12 0 -123 69 -137 69 -2 0 -1 -5 3
-12 4 -6 -10 -1 -32 12 -46 27 -137 113 -166 155 -11 17 9 1 44 -35 63 -65
130 -120 144 -120 4 0 -36 44 -89 99 -109 110 -133 153 -31 55 49 -48 92 -77
168 -114z m2722 128 c-18 -26 -22 -17 -5 14 6 11 13 17 16 15 3 -3 -2 -16 -11
-29z m754 -8 c8 -5 11 -10 5 -10 -5 0 -17 5 -25 10 -8 5 -10 10 -5 10 6 0 17
-5 25 -10z m115 -5 c-16 -8 -46 -14 -64 -15 -50 0 -26 18 29 23 25 2 50 4 55
4 6 1 -3 -5 -20 -12z m-994 -62 c-25 -47 -38 -62 -75 -91 -46 -35 -50 -26 -6
18 21 21 51 57 66 80 33 50 43 46 15 -7z m-2742 -228 c46 -19 125 -43 176 -52
98 -17 130 -14 355 32 84 17 89 11 11 -11 -34 -9 -64 -20 -67 -25 -2 -5 17 -2
43 6 26 9 58 18 71 21 12 3 22 10 22 14 0 4 16 24 36 45 l36 39 -46 -85 c-56
-105 -83 -185 -102 -314 -21 -134 -18 -223 11 -345 38 -154 105 -280 196 -366
132 -124 267 -158 394 -100 53 24 68 38 130 121 39 52 105 124 149 162 44 37
93 84 110 103 17 19 55 59 84 89 28 30 52 56 52 58 0 3 -15 -5 -34 -16 -18
-12 -40 -21 -47 -21 -8 0 -56 -27 -107 -60 -51 -33 -95 -60 -98 -60 -3 0 9 20
25 44 43 62 158 166 256 230 107 70 122 91 47 65 -17 -6 -37 -9 -44 -6 -7 2
41 31 107 65 70 35 134 75 154 96 44 46 62 47 27 2 -31 -41 -32 -46 -8 -46 10
0 -1 -10 -25 -24 -69 -40 -133 -86 -133 -97 0 -6 5 -7 10 -4 12 7 140 44 140
40 0 -2 -38 -25 -85 -51 -47 -26 -83 -49 -82 -51 2 -1 27 6 55 17 61 23 68 19
15 -9 -41 -22 -40 -27 2 -11 18 7 24 7 20 -1 -7 -11 -30 -21 -110 -50 -44 -16
-47 -18 -20 -18 29 -1 27 -4 -52 -79 -89 -84 -104 -107 -48 -72 19 12 39 19
43 16 5 -3 18 1 28 10 18 14 17 14 -6 4 -23 -10 -24 -10 -6 4 10 9 23 13 27
10 5 -2 31 7 59 21 27 14 50 23 50 21 0 -3 -20 -19 -45 -36 -25 -17 -45 -36
-45 -42 0 -6 -22 -34 -48 -62 -58 -61 -134 -198 -157 -281 -9 -33 -19 -98 -24
-145 l-7 -85 -13 44 c-18 64 -15 185 9 260 10 36 18 67 15 69 -16 17 -115
-213 -115 -269 0 -31 -19 -51 -21 -22 -4 49 6 103 32 176 16 44 27 83 24 85
-9 9 -46 -31 -82 -91 -23 -39 -38 -55 -43 -47 -6 9 -17 3 -39 -21 -38 -42 -38
-54 -3 -76 15 -10 50 -35 77 -55 28 -21 66 -43 85 -49 56 -18 70 -35 59 -71
-5 -17 -20 -48 -33 -68 -27 -41 -133 -136 -142 -127 -3 3 3 14 14 24 99 93
120 115 131 137 23 42 8 59 -44 54 -45 -6 -54 -1 -34 19 17 17 -15 23 -42 8
-13 -8 -30 -17 -37 -21 -7 -3 -22 2 -34 12 -21 18 -21 17 1 -14 17 -25 21 -36
12 -45 -8 -8 -11 -8 -11 2 0 8 -7 11 -19 8 -12 -3 -27 3 -36 13 -22 24 -47
109 -39 134 5 19 4 19 -9 6 -23 -24 -39 -128 -26 -173 6 -22 8 -41 5 -45 -3
-3 -6 2 -6 11 0 9 -5 17 -11 17 -6 0 -1 -16 12 -36 15 -25 18 -35 8 -32 -8 2
-19 15 -25 27 -8 15 -13 18 -16 9 -3 -7 -15 6 -28 31 -18 35 -21 56 -18 100
l5 56 -24 -55 c-24 -54 -25 -87 -6 -168 4 -17 2 -21 -11 -16 -9 3 -16 17 -16
30 0 37 -20 29 -21 -8 0 -30 -2 -28 -20 22 -16 42 -19 69 -15 114 5 49 4 57
-8 47 -16 -14 -36 -86 -36 -133 0 -25 -3 -29 -10 -18 -9 13 -11 13 -20 0 -5
-8 -10 -25 -10 -38 0 -13 -4 -21 -9 -17 -6 3 -14 -3 -20 -12 -18 -31 -14 151
4 194 8 20 14 37 13 39 -2 1 -15 -8 -30 -21 -31 -26 -49 -60 -73 -135 -20 -63
-40 -92 -32 -45 15 84 18 127 8 120 -6 -3 -11 -13 -11 -21 0 -8 -9 -31 -20
-51 -11 -21 -20 -43 -20 -49 0 -6 -7 -17 -15 -24 -14 -11 -14 -10 -5 14 13 34
13 49 0 41 -18 -11 -10 49 20 135 15 47 26 88 23 92 -9 15 -33 8 -44 -14 -7
-13 -21 -33 -33 -44 -12 -12 -32 -37 -45 -55 -13 -19 -37 -45 -54 -58 l-29
-24 17 32 c20 39 13 53 -9 18 -14 -20 -54 -47 -72 -47 -2 0 26 42 64 93 86
117 114 165 101 173 -6 3 -11 4 -13 3 -52 -72 -103 -132 -137 -164 -24 -22
-34 -29 -23 -15 12 14 29 40 38 58 23 45 1 43 -59 -7 -56 -46 -92 -67 -102
-57 -4 3 4 14 18 23 52 35 120 115 153 181 31 62 33 72 21 88 -8 11 -15 14
-15 7 0 -22 -122 -144 -164 -165 -41 -20 -136 -50 -136 -42 0 2 15 12 33 21
31 17 127 113 113 113 -4 0 -39 -18 -78 -40 -39 -22 -73 -38 -75 -36 -3 3 21
22 53 42 84 54 152 121 181 178 28 56 18 82 -15 37 -21 -28 -141 -121 -157
-121 -4 0 -5 7 -1 15 7 18 7 18 -38 0 -65 -27 -165 -47 -184 -36 -9 6 -15 11
-12 12 3 0 18 3 34 5 15 3 58 17 93 31 53 21 82 43 154 114 49 49 89 93 89 99
0 6 -35 -14 -78 -44 -102 -72 -227 -128 -157 -71 16 13 27 26 24 29 -3 3 -32
1 -65 -5 -86 -15 -200 -22 -191 -12 5 4 47 13 93 19 68 9 105 22 187 63 94 46
179 112 165 127 -4 3 -47 -11 -97 -31 -139 -55 -336 -84 -381 -55 -10 7 14 10
77 10 94 0 183 25 183 51 0 6 -6 9 -14 6 -8 -3 -17 -3 -20 0 -3 3 -51 5 -108
5 -57 -1 -111 2 -121 6 -10 4 26 7 80 8 78 0 115 5 183 26 99 32 193 85 198
112 3 13 0 17 -9 13 -133 -58 -138 -59 -273 -60 -132 0 -195 10 -231 37 -18
14 -17 14 15 5 52 -16 236 -12 303 6 81 21 152 53 174 78 18 20 17 20 -2 13
-11 -5 -63 -17 -115 -28 -103 -22 -266 -21 -343 2 -59 17 -38 22 38 9 101 -17
265 2 265 32 0 5 -31 9 -69 9 -83 0 -215 24 -275 50 -66 28 -64 41 2 14 125
-50 280 -56 414 -14 64 20 119 52 107 64 -3 3 -30 2 -59 -4 -70 -13 -216 -13
-282 1 -56 12 -174 55 -196 72 -25 19 -4 17 56 -8 73 -29 171 -40 276 -30 84
7 103 25 29 25 -62 0 -210 33 -271 60 -59 26 -142 79 -142 91 0 4 33 -9 73
-31 119 -63 204 -85 332 -84 92 0 121 5 175 26 59 22 217 68 247 70 6 1 17 13
23 27 9 21 9 24 -1 14 -7 -7 -18 -13 -23 -13 -6 1 3 12 19 26 18 15 23 22 11
18 -14 -6 -17 -4 -11 5 6 10 3 11 -14 2 -25 -14 -28 -22 -3 -15 16 5 16 5 0
-9 -10 -8 -18 -19 -18 -25 0 -19 -130 -53 -220 -58 -133 -8 -262 15 -370 67
-50 23 -96 49 -103 57 -10 12 -5 12 20 -2 62 -32 280 -72 298 -55 2 3 -29 13
-70 22 -94 20 -185 71 -250 138 l-50 51 61 -40 c33 -23 98 -57 143 -77z m1868
9 c-3 -3 -12 -4 -19 -1 -8 3 -5 6 6 6 11 1 17 -2 13 -5z m143 -64 c0 -5 -2
-10 -4 -10 -3 0 -8 5 -11 10 -3 6 -1 10 4 10 6 0 11 -4 11 -10z m1637 -112
c-3 -8 -6 -5 -6 6 -1 11 2 17 5 13 3 -3 4 -12 1 -19z m2412 -180 c23 -56 31
-93 31 -137 0 -53 -4 -64 -31 -96 -36 -40 -61 -48 -30 -9 27 35 27 39 -12 80
-32 34 -32 35 -26 112 6 71 24 141 34 131 2 -3 18 -39 34 -81z m-2578 49 c-10
-9 -11 -8 -5 6 3 10 9 15 12 12 3 -3 0 -11 -7 -18z m-171 -31 c0 -3 -4 -8 -10
-11 -5 -3 -10 -1 -10 4 0 6 5 11 10 11 6 0 10 -2 10 -4z m-293 -58 c-3 -8 -6
-5 -6 6 -1 11 2 17 5 13 3 -3 4 -12 1 -19z m-657 -138 c-14 -11 -70 -43 -126
-71 -57 -29 -118 -68 -139 -90 -41 -43 -37 -50 10 -19 17 12 45 27 63 35 21 9
31 19 26 26 -4 8 -3 9 4 5 6 -4 26 1 44 10 32 16 32 16 18 -1 -14 -17 -14 -18
8 -6 12 7 20 17 16 23 -4 6 -3 8 3 5 6 -4 27 0 47 8 49 21 45 13 -11 -24 -62
-39 -206 -185 -152 -153 20 12 42 22 48 22 6 0 36 20 67 45 30 25 57 45 60 45
3 0 -19 -28 -50 -62 -72 -82 -110 -162 -145 -311 -29 -123 -48 -237 -38 -237
3 0 13 35 22 78 20 92 75 229 114 286 26 37 101 106 116 106 4 0 -2 -12 -13
-27 -35 -50 -70 -128 -87 -194 -9 -35 -18 -73 -21 -84 -4 -12 7 -5 27 20 58
69 152 165 157 160 3 -3 -8 -20 -24 -37 -16 -19 -19 -24 -6 -14 37 32 37 10
-1 -26 -48 -45 -147 -219 -161 -283 -4 -19 9 -2 35 45 42 74 118 174 127 166
2 -3 -12 -31 -32 -63 -97 -157 -130 -306 -107 -487 15 -119 30 -157 31 -76 0
56 21 185 38 229 7 21 10 14 15 -39 4 -34 7 -114 7 -176 0 -199 26 -317 106
-476 19 -37 34 -69 34 -71 0 -2 -11 -2 -24 0 -17 4 -23 10 -19 21 4 10 2 13
-5 8 -7 -4 -12 -1 -12 8 0 15 -40 49 -48 41 -2 -2 8 -19 22 -38 l26 -34 -75
-1 -76 -2 -40 63 c-92 142 -133 265 -147 438 l-7 94 -19 -58 c-15 -46 -102
-215 -122 -236 -11 -12 -12 9 -3 43 17 62 1 54 -29 -15 -56 -124 -53 -121 -48
-44 3 39 8 86 12 105 9 45 -5 32 -29 -28 -13 -32 -21 -83 -24 -159 -3 -62 -9
-113 -13 -113 -13 0 -33 179 -27 240 4 34 30 122 62 207 64 173 85 265 85 371
0 79 18 176 46 246 17 43 12 60 -7 24 -7 -12 -25 -39 -40 -58 -15 -19 -50 -83
-77 -141 -26 -59 -61 -122 -76 -140 -15 -19 -41 -56 -57 -83 -17 -26 -32 -46
-35 -43 -3 3 -1 14 4 24 5 10 12 30 16 46 5 21 3 27 -9 27 -13 0 -14 4 -4 22
7 12 18 71 25 132 25 197 57 289 144 406 28 37 50 71 50 75 0 4 -15 5 -32 1
l-33 -6 40 35 c22 19 48 34 57 35 10 0 41 18 70 40 53 41 243 140 269 140 8 1
30 9 49 20 45 25 62 25 30 0z m-185 -130 c-3 -5 -12 -10 -18 -10 -7 0 -6 4 3
10 19 12 23 12 15 0z m2557 -109 c-9 -16 -18 -28 -21 -26 -4 5 27 55 34 55 2
0 -4 -13 -13 -29z m-772 -161 c-12 -16 -24 -30 -26 -30 -3 0 4 14 16 30 12 17
24 30 26 30 3 0 -4 -13 -16 -30z m-497 -145 c-3 -9 -8 -14 -10 -11 -3 3 -2 9
2 15 9 16 15 13 8 -4z m1838 -44 c-18 -33 -103 -102 -173 -140 l-68 -36 6 -50
c12 -104 59 -210 135 -304 28 -35 49 -65 46 -67 -2 -2 -32 21 -66 52 -34 31
-64 54 -67 51 -10 -10 27 -69 69 -111 23 -23 76 -67 117 -98 113 -84 204 -172
274 -262 91 -116 120 -166 97 -166 -10 0 -397 248 -440 281 -42 33 -40 21 6
-48 43 -64 91 -159 107 -210 14 -45 -14 -21 -75 65 -69 96 -157 191 -263 285
l-68 61 57 -115 c49 -97 84 -190 85 -223 0 -4 -20 18 -44 50 -24 33 -62 77
-86 99 -23 22 -51 54 -63 70 l-22 30 30 -23 c91 -69 92 -69 45 -13 -24 29 -52
57 -62 62 -19 10 -138 186 -138 203 1 6 8 -2 16 -17 21 -39 28 -28 9 16 -8 20
-12 43 -9 51 4 11 1 16 -10 16 -9 0 -16 5 -16 11 0 5 5 7 10 4 7 -4 8 7 4 32
-4 24 0 54 11 83 9 25 19 54 22 65 8 28 42 75 54 75 5 0 3 -13 -5 -29 -23 -44
-30 -104 -16 -145 6 -20 32 -64 57 -98 57 -79 70 -92 49 -51 -20 41 -20 49 1
32 15 -13 16 -12 8 6 -4 11 -15 46 -24 77 -13 50 -14 64 -2 105 8 26 14 56 15
66 1 29 92 104 176 147 41 21 107 59 145 84 82 53 78 51 66 27z m-2731 -142
c-15 -51 -12 -179 6 -255 30 -132 93 -242 214 -375 39 -44 67 -79 61 -79 -6 0
-11 5 -11 10 0 6 -5 10 -11 10 -5 0 -7 -5 -3 -12 4 -7 3 -8 -5 -4 -6 4 -9 11
-6 16 3 4 -2 13 -10 20 -12 10 -15 9 -15 -8 0 -25 -35 -27 -63 -4 -27 23 -30
8 -3 -17 19 -18 28 -20 48 -12 29 11 50 -3 40 -27 -4 -12 -1 -14 13 -8 11 4
16 4 12 0 -4 -4 1 -13 11 -20 9 -8 12 -14 5 -14 -6 0 -15 5 -18 10 -3 6 -12
10 -18 10 -7 -1 2 -12 18 -27 l30 -26 -30 18 c-16 10 -39 24 -50 32 -36 24
-136 127 -158 162 -11 19 -23 29 -25 23 -4 -12 42 -100 100 -190 81 -125 79
-128 -14 -32 -215 223 -296 375 -286 539 5 76 34 170 64 207 15 19 16 19 8 -1
-11 -32 -17 -196 -8 -205 5 -5 10 12 12 41 3 63 32 156 67 214 30 53 39 54 25
4z m-901 -241 c-13 -18 -64 -74 -113 -124 -83 -83 -103 -97 -226 -159 -197
-99 -262 -140 -348 -218 -104 -93 -122 -124 -37 -61 66 48 305 155 305 136 0
-4 -21 -18 -46 -31 -70 -37 -199 -138 -289 -226 -44 -42 -136 -132 -204 -199
l-124 -121 36 65 c20 36 56 88 82 117 63 73 56 78 -10 7 -39 -41 -73 -95 -115
-179 -54 -107 -60 -115 -54 -75 8 62 48 179 95 278 64 137 154 250 254 316 64
42 33 30 -103 -40 -183 -94 -218 -114 -305 -172 -86 -57 -126 -68 -106 -29 7
12 39 58 73 102 160 212 362 351 519 359 77 4 318 65 416 105 73 30 236 122
281 160 37 30 44 25 19 -11z m3056 -120 c8 -22 11 -37 5 -33 -14 8 -40 103
-39 139 1 23 3 19 9 -17 5 -27 16 -67 25 -89z m-3445 47 c0 -7 -121 -67 -127
-62 -2 3 24 19 59 36 68 33 68 33 68 26z m3489 -262 c40 -41 71 -77 67 -80 -7
-7 -125 105 -158 150 -11 15 -21 38 -23 50 -2 12 -6 38 -10 57 -4 22 4 9 22
-35 22 -55 43 -84 102 -142z m-2025 181 c3 -8 2 -12 -4 -9 -6 3 -10 10 -10 16
0 14 7 11 14 -7z m1380 -44 c-6 -5 -24 21 -24 34 0 6 6 1 14 -10 8 -10 12 -21
10 -24z m-1324 -52 c0 -17 -10 -6 -25 25 l-16 32 20 -25 c11 -14 21 -28 21
-32z m1474 10 c14 -23 55 -73 92 -110 78 -79 80 -92 3 -18 -50 48 -67 60 -54
41 3 -5 1 -12 -4 -15 -5 -4 -8 2 -6 11 1 10 -1 23 -5 28 -18 26 -60 105 -56
105 3 0 16 -19 30 -42z m-133 10 c11 -21 11 -22 -4 -9 -10 7 -17 17 -17 22 0
15 9 10 21 -13z m60 5 c13 -16 12 -17 -3 -4 -10 7 -18 15 -18 17 0 8 8 3 21
-13z m-1387 -59 c3 -8 2 -12 -4 -9 -6 3 -10 10 -10 16 0 14 7 11 14 -7z m110
-104 c31 -44 32 -48 8 -20 -17 19 -38 49 -48 65 -23 42 -5 21 40 -45z m-31
-66 l32 -26 -34 20 c-18 11 -42 35 -53 53 l-20 34 22 -27 c12 -15 36 -40 53
-54z m-1389 16 c-20 -27 -41 -53 -47 -57 -13 -8 -12 -6 42 65 45 58 49 53 5
-8z m-64 -28 c-59 -48 -130 -120 -155 -156 -27 -39 -58 -74 -49 -56 11 22 67
102 84 121 27 28 150 129 158 129 4 -1 -13 -17 -38 -38z m1585 -57 c27 -33 36
-49 20 -35 -15 14 -41 45 -58 70 -37 56 -24 44 38 -35z m1225 -15 c8 -5 11
-10 5 -10 -5 0 -17 5 -25 10 -8 5 -10 10 -5 10 6 0 17 -5 25 -10z m-50 -32 c0
-11 -12 -10 -30 2 -12 7 -10 9 8 7 12 0 22 -5 22 -9z m75 -161 c20 -19 20 -19
-3 -12 -26 8 -192 104 -192 111 0 3 9 0 19 -6 11 -5 27 -7 35 -4 14 5 13 10
-6 38 -18 26 38 -22 147 -127z m-10 85 c-4 -4 -95 48 -95 55 0 2 22 -8 49 -24
28 -15 48 -29 46 -31z m36 30 c-7 -2 -18 1 -23 6 -8 8 -4 9 13 5 13 -4 18 -8
10 -11z m11 -29 c-10 -4 -9 -9 5 -19 16 -13 15 -13 -10 -2 -20 8 -24 14 -15
20 7 4 18 7 23 7 6 0 4 -3 -3 -6z m4318 -45 c120 -61 120 -243 0 -306 -86 -46
-203 -11 -241 72 -73 160 85 313 241 234z m-4032 -45 c-15 -2 -42 -2 -60 0
-18 2 -6 4 27 4 33 0 48 -2 33 -4z m-5085 -143 l259 0 -35 -47 c-19 -27 -77
-109 -130 -183 l-94 -135 -249 -7 c-289 -7 -756 -26 -863 -34 -42 -3 -85 -13
-98 -21 -44 -29 -83 -135 -68 -183 13 -41 41 -42 410 -24 192 10 431 18 530
18 180 1 180 1 238 -28 130 -66 188 -195 154 -343 -9 -38 -26 -110 -37 -162
-40 -179 -111 -290 -238 -375 -91 -60 -162 -82 -332 -101 -723 -80 -808 -91
-1045 -135 -160 -30 -632 -172 -717 -216 -15 -8 -28 -10 -28 -5 0 6 102 108
228 227 208 199 313 292 431 384 l44 34 331 32 c182 18 423 40 536 49 113 9
223 22 244 28 50 15 73 47 87 119 10 50 9 61 -6 84 l-17 27 -147 -7 c-143 -6
-288 -18 -641 -51 -276 -27 -375 -11 -473 75 -105 92 -119 186 -62 426 21 88
49 181 62 209 79 155 206 261 378 315 92 29 274 37 735 33 195 -1 471 -3 613
-3z m2075 -5 c2 -2 -42 -200 -97 -441 -55 -242 -114 -500 -130 -574 -63 -281
-83 -365 -89 -372 -9 -8 -440 -43 -447 -36 -3 2 11 74 30 159 62 273 85 378
85 395 0 18 -27 18 -420 -6 -85 -5 -205 -12 -266 -16 l-111 -6 -16 -86 c-9
-48 -30 -145 -47 -217 -16 -71 -37 -166 -46 -210 -8 -44 -19 -83 -23 -87 -6
-7 -149 -25 -341 -42 -36 -4 -80 -9 -97 -12 -38 -7 -40 -1 -23 69 5 23 33 148
60 277 65 299 213 974 244 1105 l23 100 237 3 c223 2 237 1 232 -15 -22 -69
-116 -506 -111 -511 4 -5 786 16 791 20 2 3 114 494 114 503 0 10 438 10 448
0z m1639 1 c1 -1 -11 -56 -27 -121 -16 -66 -32 -139 -36 -162 l-6 -43 -192 0
c-105 0 -349 -3 -543 -7 l-352 -6 -16 -71 c-9 -39 -19 -77 -21 -84 -3 -12 74
-13 456 -10 317 2 460 0 460 -7 0 -15 -67 -285 -71 -289 -2 -2 -139 -6 -304
-10 -165 -3 -371 -9 -458 -12 -149 -6 -158 -8 -162 -28 -27 -119 -34 -150 -30
-155 1 -3 106 -3 232 0 761 22 866 22 860 6 -3 -9 -18 -71 -33 -139 -15 -68
-28 -124 -28 -125 -1 -1 -75 -11 -166 -23 -90 -11 -184 -25 -209 -30 -25 -5
-167 -14 -316 -20 -285 -12 -703 -35 -819 -46 l-69 -7 7 24 c3 13 20 89 37
169 16 80 36 170 44 200 8 30 46 199 85 375 39 176 87 389 106 472 l37 153
406 2 c388 3 1123 -1 1128 -6z m1623 -7 c0 -10 -18 -94 -46 -219 -8 -36 -17
-74 -19 -85 -4 -20 -11 -20 -544 -17 l-540 2 -11 -57 c-6 -32 -15 -70 -20 -84
l-8 -26 316 -6 c173 -4 382 -7 464 -7 137 0 149 -1 145 -17 -3 -10 -19 -79
-37 -153 l-31 -135 -461 0 -462 0 -17 -80 c-10 -44 -18 -83 -18 -86 -1 -4 246
-8 549 -11 302 -2 552 -7 555 -10 6 -6 -39 -215 -48 -225 -4 -3 -89 -1 -189 6
-330 20 -765 11 -1191 -24 -98 -8 -180 -15 -181 -15 -2 0 8 48 21 108 13 59
50 238 83 397 33 160 83 395 112 523 l52 232 763 0 c527 0 763 -3 763 -11z
m1424 -4 c147 -31 226 -113 242 -249 9 -76 -66 -439 -108 -526 -59 -121 -146
-192 -281 -227 -66 -17 -107 -16 -646 7 -172 8 -246 8 -251 0 -3 -6 -14 -54
-24 -108 -10 -53 -22 -113 -27 -133 l-9 -36 -48 8 c-61 9 -117 15 -268 30 -65
6 -121 12 -123 14 -2 2 13 89 33 192 67 339 197 998 202 1021 l4 22 618 0
c501 0 630 -3 686 -15z m1828 -20 c125 -31 206 -94 254 -198 47 -105 45 -160
-27 -547 -22 -118 -46 -249 -54 -290 -62 -342 -146 -494 -317 -575 -124 -59
-193 -64 -454 -31 -120 15 -232 29 -249 32 -16 2 -122 15 -235 29 -269 33
-262 32 -312 45 -165 45 -266 161 -275 315 -4 59 10 138 80 485 47 228 95 441
106 472 52 136 176 236 337 272 59 13 144 15 579 10 385 -4 524 -9 567 -19z
m-3673 -1305 c383 -15 691 -46 1008 -100 193 -33 363 -74 402 -96 25 -14 24
-14 -24 -9 -222 23 -716 47 -840 40 -44 -2 -159 -7 -255 -10 -663 -20 -1519
-211 -2242 -499 -91 -36 -169 -66 -174 -66 -29 1 378 205 576 290 238 102 670
260 712 260 9 0 19 4 22 9 4 5 -11 7 -31 5 -21 -2 -119 -11 -218 -19 -799 -69
-1498 -249 -2200 -565 -215 -97 -288 -122 -359 -124 -66 -1 -84 13 -72 58 8
34 84 116 151 165 300 219 952 432 1699 556 572 94 1201 130 1845 105z m-5149
-1200 c21 -21 28 -92 10 -120 -8 -13 -125 -32 -142 -23 -5 2 -8 40 -8 84 l0
79 60 0 c47 0 64 -4 80 -20z m344 -12 c8 -23 6 -32 -12 -50 -21 -23 -21 -23
-2 -48 25 -32 25 -40 1 -40 -11 0 -28 15 -40 35 -27 46 -61 49 -61 5 0 -23 -4
-30 -20 -30 -18 0 -20 7 -20 80 l0 81 72 -3 c69 -3 73 -4 82 -30z m310 19 c11
-8 20 -31 23 -59 5 -40 2 -50 -20 -72 -32 -32 -83 -35 -121 -5 -21 16 -26 29
-26 63 0 63 21 86 79 86 26 0 55 -6 65 -13z m334 1 c7 -7 12 -24 12 -38 0 -37
-18 -50 -66 -50 -41 0 -43 -1 -46 -32 -2 -22 -9 -34 -20 -36 -16 -3 -18 6 -18
82 l0 86 63 0 c36 0 68 -5 75 -12z m316 -4 c9 -8 14 -20 11 -25 -8 -12 -35
-12 -35 1 0 6 -18 10 -40 10 -60 0 -54 -27 8 -36 26 -3 53 -11 60 -16 19 -16
14 -55 -10 -72 -44 -31 -138 -10 -138 30 0 19 24 18 40 -2 17 -20 74 -15 78 7
2 13 -8 19 -48 24 -59 8 -81 35 -61 74 10 17 21 21 66 21 35 0 59 -5 69 -16z
m1016 1 c0 -11 -12 -15 -45 -15 -38 0 -45 -3 -45 -20 0 -17 7 -20 40 -20 22 0
40 -4 40 -10 0 -5 -18 -10 -39 -10 -39 0 -40 -1 -43 -37 -2 -26 -8 -38 -18
-38 -12 0 -16 17 -18 83 l-3 82 66 0 c51 0 65 -3 65 -15z m304 -1 c21 -21 20
-47 -3 -68 -18 -17 -18 -19 -3 -46 9 -16 13 -32 9 -36 -9 -9 -45 23 -52 47 -4
12 -16 19 -30 19 -19 0 -24 -6 -27 -32 -2 -21 -8 -33 -18 -33 -12 0 -16 17
-18 83 l-3 82 65 0 c45 0 69 -5 80 -16z m299 -62 c25 -61 28 -75 16 -83 -10
-6 -17 -3 -23 11 -11 25 -81 29 -90 5 -6 -16 -36 -21 -36 -6 0 5 11 33 23 62
13 30 27 62 30 72 5 12 15 17 29 15 17 -2 29 -20 51 -76z m318 68 c10 -6 19
-17 19 -25 0 -17 -26 -20 -35 -5 -3 6 -22 10 -40 10 -28 0 -36 -5 -41 -24 -14
-58 11 -94 59 -82 31 7 36 36 7 36 -11 0 -20 7 -20 15 0 11 11 15 40 15 37 0
40 -2 40 -28 0 -49 -22 -67 -80 -67 -42 0 -55 4 -71 24 -29 36 -21 109 15 133
16 11 84 10 107 -2z m337 -2 c18 -18 15 -66 -5 -77 -17 -9 -17 -11 0 -39 21
-37 21 -39 2 -39 -9 0 -25 15 -36 34 -28 45 -69 47 -69 3 0 -20 -5 -30 -15
-30 -12 0 -15 16 -15 80 l0 80 63 0 c36 0 68 -5 75 -12z m303 -63 c34 -85 35
-95 9 -88 -11 3 -20 12 -20 19 0 20 -76 19 -84 -1 -3 -8 -14 -15 -25 -15 -20
0 -20 1 -1 43 10 23 25 59 34 80 12 30 20 38 37 35 16 -2 28 -20 50 -73z m275
18 l39 -57 3 57 c2 42 7 57 17 57 12 0 15 -17 15 -85 0 -54 -4 -85 -11 -85
-12 0 -53 41 -86 85 l-22 30 0 -52 c-1 -46 -4 -53 -21 -53 -18 0 -20 7 -20 80
0 77 1 80 23 80 17 0 34 -15 63 -57z m385 47 c25 -14 25 -40 0 -40 -11 0 -21
4 -23 9 -7 18 -46 22 -62 6 -19 -19 -21 -76 -4 -93 17 -17 53 -15 68 3 16 19
40 19 40 1 0 -22 -40 -46 -78 -46 -22 0 -41 8 -59 26 -22 22 -25 32 -20 72 3
28 12 51 23 59 21 16 88 17 115 3z m324 -5 c0 -5 -21 -11 -47 -13 -40 -3 -48
-6 -48 -23 0 -18 5 -20 37 -17 22 2 38 -2 41 -10 2 -8 -9 -12 -37 -12 -37 0
-41 -2 -41 -25 0 -23 3 -25 51 -25 36 0 49 -4 46 -12 -2 -7 -15 -12 -28 -12
-13 1 -43 2 -66 3 l-43 1 0 80 0 81 68 -3 c37 -2 67 -7 67 -13z m1000 -7 c14
-21 14 -23 -1 -26 -9 -2 -21 1 -27 7 -6 6 -26 11 -44 11 -26 0 -34 -5 -39 -24
-14 -58 11 -94 59 -82 31 7 36 36 7 36 -11 0 -20 7 -20 15 0 11 11 15 40 15
39 0 40 -1 40 -34 0 -44 -22 -61 -82 -61 -61 0 -88 26 -88 86 0 56 26 79 89
79 40 0 53 -4 66 -22z m331 1 c13 -14 19 -36 19 -66 0 -61 -31 -87 -93 -80
-54 6 -72 23 -79 73 -4 30 0 45 17 67 18 23 29 27 69 27 36 0 53 -5 67 -21z
m336 4 c38 -45 26 -123 -22 -143 -39 -16 -95 -5 -115 23 -21 30 -19 80 6 111
17 22 29 26 68 26 33 0 53 -5 63 -17z m340 0 c24 -21 25 -99 1 -125 -12 -14
-31 -18 -80 -18 l-63 0 0 80 0 80 62 0 c43 0 67 -5 80 -17z m333 1 c24 -24 3
-42 -28 -25 -28 15 -69 11 -74 -6 -3 -7 14 -14 44 -19 56 -8 73 -19 73 -48 0
-35 -15 -48 -64 -53 -49 -6 -96 15 -96 42 0 20 24 19 40 -1 17 -20 74 -15 78
7 2 13 -8 19 -48 24 -54 7 -75 29 -63 62 10 27 23 33 75 33 30 0 52 -6 63 -16z
m-5425 -49 c20 -24 3 -57 -28 -53 -27 3 -39 26 -28 54 7 18 40 18 56 -1z
m3543 -7 c8 -12 7 -21 -2 -32 -19 -23 -58 -20 -66 4 -14 43 44 67 68 28z"/>
<path d="M6392 11148 c-6 -8 -10 -17 -7 -19 4 -5 -5 -6 -68 -12 -21 -1 -42 -9
-47 -17 -8 -13 -10 -12 -10 3 0 9 -4 17 -10 17 -32 0 37 -96 81 -112 27 -10
96 60 104 106 5 32 4 38 -9 33 -8 -3 -16 -1 -18 5 -2 6 -9 4 -16 -4z"/>
<path d="M6954 10264 c-18 -14 -18 -15 4 -4 12 6 22 13 22 15 0 8 -5 6 -26
-11z"/>
<path d="M8670 9869 c0 -5 5 -7 10 -4 6 3 10 8 10 11 0 2 -4 4 -10 4 -5 0 -10
-5 -10 -11z"/>
<path d="M8639 9823 c-13 -16 -12 -17 4 -4 9 7 17 15 17 17 0 8 -8 3 -21 -13z"/>
<path d="M6310 10110 c-12 -8 -13 -10 -1 -10 8 0 11 -3 8 -6 -4 -4 -13 -2 -21
5 -11 9 -15 7 -19 -11 -4 -12 -1 -25 5 -29 7 -4 4 -9 -8 -12 -10 -2 -2 -5 19
-6 24 -1 36 3 32 9 -4 6 -12 7 -18 4 -7 -4 -9 -3 -4 1 14 16 47 15 53 0 4 -10
20 -15 46 -15 23 0 37 4 33 10 -6 10 7 14 33 11 14 -2 16 15 2 24 -6 4 -8 10
-6 14 3 4 -1 8 -9 8 -8 0 -15 -5 -15 -11 0 -6 -4 -5 -9 3 -11 17 -100 25 -121
11z"/>
<path d="M7965 9600 c-3 -5 -1 -10 4 -10 6 0 11 5 11 10 0 6 -2 10 -4 10 -3 0
-8 -4 -11 -10z"/>
<path d="M8070 9566 c0 -2 8 -10 18 -17 15 -13 16 -12 3 4 -13 16 -21 21 -21
13z"/>
<path d="M8045 9547 c-12 -14 -13 -27 -1 -45 6 -11 11 -9 23 8 13 19 13 24 2
35 -11 10 -16 11 -24 2z m23 -19 c-2 -6 -10 -13 -16 -14 -7 -1 -8 0 -2 3 5 2
8 9 4 14 -3 5 0 9 6 9 7 0 10 -5 8 -12z"/>
<path d="M8095 9518 c-13 -13 -14 -17 -5 -13 11 4 16 -1 16 -14 0 -16 -4 -18
-21 -10 -11 6 -4 -3 15 -20 19 -16 38 -27 43 -24 4 2 6 1 5 -4 -2 -5 22 -36
52 -70 47 -52 57 -59 68 -46 8 8 11 21 8 29 -3 9 -1 12 4 9 45 -28 -64 103
-128 153 -37 29 -37 29 -57 10z"/>
<path d="M5254 9758 l-19 -23 23 19 c21 18 27 26 19 26 -2 0 -12 -10 -23 -22z"/>
<path d="M4874 9748 l-19 -23 23 19 c21 18 27 26 19 26 -2 0 -12 -10 -23 -22z"/>
<path d="M5471 9701 c-17 -16 -31 -33 -31 -37 0 -4 15 5 32 22 18 16 35 30 37
32 2 1 2 4 -1 7 -3 3 -19 -8 -37 -24z"/>
<path d="M5555 9680 c-21 -22 -35 -40 -29 -40 5 0 28 18 49 40 21 22 35 40 29
40 -5 0 -28 -18 -49 -40z"/>
<path d="M5800 9629 l-55 -50 63 47 c34 26 62 49 62 51 0 11 -22 -4 -70 -48z"/>
<path d="M6052 9494 c-61 -46 -84 -77 -39 -53 36 20 117 83 117 91 0 15 -16 8
-78 -38z"/>
<path d="M6222 9371 c-42 -31 -57 -49 -49 -57 3 -3 21 9 40 25 19 17 50 38 68
46 32 13 33 14 8 15 -14 0 -44 -13 -67 -29z"/>
<path d="M6835 9380 c-4 -6 5 -10 19 -10 14 0 26 5 26 10 0 6 -9 10 -19 10
-11 0 -23 -4 -26 -10z"/>
<path d="M7013 9273 c9 -2 23 -2 30 0 6 3 -1 5 -18 5 -16 0 -22 -2 -12 -5z"/>
<path d="M6382 9228 c-42 -34 -56 -56 -24 -39 19 10 79 71 70 71 -3 0 -24 -15
-46 -32z"/>
<path d="M7624 9215 c11 -8 25 -15 30 -15 6 0 2 7 -8 15 -11 8 -25 15 -30 15
-6 0 -2 -7 8 -15z"/>
<path d="M6968 9203 c12 -2 32 -2 45 0 12 2 2 4 -23 4 -25 0 -35 -2 -22 -4z"/>
<path d="M7943 9047 c50 -51 76 -68 132 -89 82 -31 207 -69 212 -65 5 5 -91
72 -104 72 -6 0 -21 9 -32 19 -20 18 -21 18 -21 1 0 -16 -1 -16 -26 0 -18 11
-29 14 -33 6 -4 -6 -18 1 -35 20 -18 19 -31 26 -36 19 -4 -6 -23 7 -48 35 -22
25 -48 45 -56 45 -8 0 13 -28 47 -63z"/>
<path d="M3197 8893 c-4 -3 -7 -11 -7 -17 0 -6 5 -5 12 2 6 6 9 14 7 17 -3 3
-9 2 -12 -2z"/>
<path d="M8160 8619 c-11 -7 -4 -8 25 -3 50 8 58 14 19 14 -16 0 -36 -5 -44
-11z"/>
<path d="M8110 8498 c-25 -5 -49 -13 -53 -17 -4 -4 23 -1 60 6 67 14 93 24 57
22 -10 -1 -39 -6 -64 -11z"/>
<path d="M7774 8479 c-19 -22 -19 -22 3 -10 24 12 39 31 25 31 -5 0 -17 -10
-28 -21z"/>
<path d="M8265 8474 c-27 -13 -63 -24 -80 -23 l-30 0 30 14 c29 14 24 14 -40
-1 -25 -6 -27 -8 -10 -14 16 -5 12 -8 -18 -14 -20 -4 -37 -11 -37 -16 0 -12 2
-12 58 -1 23 5 42 4 42 0 0 -5 -8 -9 -17 -9 -15 0 -15 -2 -4 -9 21 -13 105 -3
174 21 31 12 56 22 55 24 -2 1 -45 -3 -96 -10 -50 -7 -92 -10 -92 -7 0 3 33
21 73 38 39 18 65 32 57 32 -8 0 -37 -11 -65 -25z"/>
<path d="M8790 8489 c0 -5 9 -9 20 -9 11 0 20 2 20 4 0 2 -9 6 -20 9 -11 3
-20 1 -20 -4z"/>
<path d="M7825 8480 c-3 -6 1 -7 9 -4 18 7 21 14 7 14 -6 0 -13 -4 -16 -10z"/>
<path d="M8238 8483 c7 -3 16 -2 19 1 4 3 -2 6 -13 5 -11 0 -14 -3 -6 -6z"/>
<path d="M7759 8413 c-13 -16 -12 -17 4 -4 9 7 17 15 17 17 0 8 -8 3 -21 -13z"/>
<path d="M8452 8420 c-18 -4 -36 -10 -39 -14 -9 -8 3 -7 72 8 37 9 49 14 30
14 -16 0 -45 -4 -63 -8z"/>
<path d="M6724 8396 c-10 -8 -17 -17 -14 -19 3 -3 14 1 24 9 11 7 17 16 15 19
-3 3 -14 -2 -25 -9z"/>
<path d="M8480 8396 c-30 -7 -65 -16 -77 -20 -12 -4 -24 -2 -28 4 -3 5 -13 10
-21 10 -8 0 -12 -4 -9 -10 8 -13 -8 -13 -21 0 -8 8 -33 6 -82 -4 -80 -17 -134
-39 -69 -29 24 4 37 2 37 -6 0 -8 27 -10 90 -7 49 2 88 0 85 -4 -3 -4 -23 -8
-45 -8 -22 0 -45 -4 -52 -8 -7 -4 -35 -13 -63 -20 -41 -10 -45 -12 -19 -13 17
-1 49 5 70 12 44 16 181 31 149 17 -11 -5 -40 -9 -65 -9 -25 -1 -52 -6 -60
-11 -14 -9 29 -7 129 5 25 3 31 1 24 -6 -6 -6 -26 -13 -45 -14 -45 -4 -45 -4
-28 -16 13 -9 13 -10 0 -7 -23 3 -119 -23 -127 -35 -4 -7 5 -8 28 -3 68 15
183 35 186 32 4 -3 -169 -53 -214 -61 -18 -4 -33 -10 -33 -15 0 -4 24 -2 53 5
81 20 118 25 113 16 -3 -5 -23 -11 -43 -15 -44 -7 -129 -44 -120 -52 3 -3 33
6 66 19 33 13 58 21 56 17 -3 -5 -36 -20 -74 -35 -37 -15 -81 -38 -97 -51
l-29 -24 48 16 c74 25 66 10 -12 -20 -38 -15 -75 -33 -81 -41 -6 -8 20 -2 62
15 40 15 87 30 103 34 l30 6 -27 -15 c-35 -20 -36 -28 -2 -15 46 18 50 10 7
-16 -24 -14 -43 -27 -43 -29 0 -3 25 6 56 20 72 32 83 32 44 -1 -17 -15 -29
-28 -27 -31 2 -2 35 12 73 31 65 32 111 45 179 50 17 1 40 3 53 4 12 1 22 7
22 13 0 8 -16 10 -47 6 l-48 -5 55 19 c52 17 41 18 -40 2 -19 -3 -22 -2 -10 6
26 18 2 24 -26 7 -14 -10 -28 -16 -30 -13 -7 7 57 42 91 52 17 4 25 9 18 12
-6 2 -39 -7 -72 -20 -34 -14 -61 -23 -61 -22 0 2 15 12 33 24 34 22 25 27 -19
11 -43 -17 -40 -3 5 20 23 11 41 25 41 31 0 6 4 8 9 5 4 -3 17 1 27 9 17 12
15 13 -19 5 -20 -4 -48 -15 -62 -24 -31 -20 -41 -21 -25 -1 7 8 10 15 7 15 -4
0 17 25 45 55 29 32 75 67 109 84 63 31 58 45 -11 30 -124 -28 -228 -27 -117
1 57 14 94 30 67 29 -8 -1 -40 -7 -70 -13z m-220 -46 c-20 -13 -33 -13 -25 0
3 6 14 10 23 10 15 0 15 -2 2 -10z m245 -10 c-3 -5 -12 -10 -18 -10 -7 0 -6 4
3 10 19 12 23 12 15 0z"/>
<path d="M8095 8390 c-7 -12 2 -12 30 0 19 8 19 9 -2 9 -12 1 -25 -3 -28 -9z"/>
<path d="M8015 8360 c-22 -11 -29 -17 -15 -14 38 10 87 32 70 33 -8 0 -33 -8
-55 -19z"/>
<path d="M8155 8320 l-20 -9 20 0 c11 0 27 4 35 9 13 9 13 10 0 9 -8 0 -24 -4
-35 -9z"/>
<path d="M6792 8295 c-7 -14 -12 -35 -12 -46 0 -21 29 -79 40 -79 3 0 6 33 7
72 1 68 0 71 -13 48 l-15 -25 6 28 c7 34 2 35 -13 2z"/>
<path d="M7086 8274 c-5 -14 -4 -15 9 -4 17 14 19 20 6 20 -5 0 -12 -7 -15
-16z"/>
<path d="M8285 8265 l-60 -14 55 6 c30 3 62 9 70 14 19 11 8 10 -65 -6z"/>
<path d="M8200 8201 c-31 -10 -110 -50 -110 -56 0 -3 24 6 53 19 28 13 63 29
77 34 29 12 16 14 -20 3z"/>
<path d="M8157 8154 c-43 -23 -26 -27 19 -4 21 10 32 19 24 19 -8 0 -28 -7
-43 -15z"/>
<path d="M6545 8111 c-16 -25 -31 -50 -33 -56 -6 -17 38 38 54 68 25 47 11 39
-21 -12z"/>
<path d="M8175 8110 c-3 -6 1 -7 9 -4 18 7 21 14 7 14 -6 0 -13 -4 -16 -10z"/>
<path d="M8114 8054 c-18 -14 -18 -15 4 -4 12 6 22 13 22 15 0 8 -5 6 -26 -11z"/>
<path d="M7506 8035 c-3 -9 -6 -22 -5 -28 0 -7 5 -1 10 12 5 13 8 26 5 28 -2
2 -6 -3 -10 -12z"/>
<path d="M7596 8003 c-6 -14 -5 -15 5 -6 7 7 10 15 7 18 -3 3 -9 -2 -12 -12z"/>
<path d="M7411 7954 c0 -11 3 -14 6 -6 3 7 2 16 -1 19 -3 4 -6 -2 -5 -13z"/>
<path d="M9255 7900 c3 -5 8 -10 11 -10 2 0 4 5 4 10 0 6 -5 10 -11 10 -5 0
-7 -4 -4 -10z"/>
<path d="M9290 7900 c-9 -6 -10 -10 -3 -10 6 0 15 5 18 10 8 12 4 12 -15 0z"/>
<path d="M7442 7710 c0 -14 2 -19 5 -12 2 6 2 18 0 25 -3 6 -5 1 -5 -13z"/>
<path d="M8155 7683 l-18 -28 27 24 c28 26 31 31 17 31 -5 0 -17 -12 -26 -27z"/>
<path d="M8400 7680 c-13 -8 -12 -10 3 -10 9 0 17 5 17 10 0 12 -1 12 -20 0z"/>
<path d="M9161 7682 c-19 -6 -12 -22 10 -22 11 0 17 -4 14 -10 -3 -5 0 -10 9
-10 8 0 17 -6 19 -12 4 -10 6 -10 6 0 1 17 21 15 21 -3 0 -9 6 -12 17 -8 10 4
14 2 9 -5 -3 -6 -2 -13 4 -17 5 -3 10 -1 10 4 0 6 5 11 10 11 6 0 10 -9 10
-20 0 -30 16 -24 39 16 28 47 27 53 -14 70 -32 13 -132 17 -164 6z"/>
<path d="M6830 7654 c0 -6 11 -37 25 -70 13 -32 24 -52 25 -42 0 9 -11 40 -25
70 -14 29 -25 48 -25 42z"/>
<path d="M6441 7599 c-40 -89 -65 -210 -64 -297 3 -99 17 -137 28 -73 5 31 10
40 18 32 22 -22 25 -10 18 77 -9 131 -6 202 12 252 21 58 13 65 -12 9z m-40
-312 c-8 -8 -11 2 -11 34 0 59 14 73 18 19 2 -24 -2 -48 -7 -53z"/>
<path d="M7596 7594 c-4 -20 -5 -38 -3 -40 3 -3 8 11 11 32 4 20 5 38 3 40 -3
3 -8 -11 -11 -32z"/>
<path d="M7554 7593 c-11 -53 -27 -98 -43 -123 l-15 -25 23 20 c32 28 41 47
47 105 6 54 -2 68 -12 23z"/>
<path d="M7675 7550 c-4 -12 -5 -24 -2 -27 3 -2 8 5 12 17 4 12 5 24 2 27 -3
2 -8 -5 -12 -17z"/>
<path d="M6211 7514 c0 -11 3 -14 6 -6 3 7 2 16 -1 19 -3 4 -6 -2 -5 -13z"/>
<path d="M6696 7462 c-75 -120 -73 -201 9 -348 39 -69 66 -87 39 -26 -22 48
-42 124 -50 181 -4 36 0 62 20 115 25 66 34 126 19 126 -5 0 -21 -22 -37 -48z
m-25 -133 c-6 -24 -9 -28 -10 -12 -1 24 9 56 16 50 2 -3 0 -20 -6 -38z"/>
<path d="M6932 7470 c0 -14 2 -19 5 -12 2 6 2 18 0 25 -3 6 -5 1 -5 -13z"/>
<path d="M6886 7419 c-3 -18 -4 -34 -2 -36 2 -3 7 10 11 27 4 17 5 34 2 36 -2
3 -7 -10 -11 -27z"/>
<path d="M6916 7425 c-9 -26 -7 -32 5 -12 6 10 9 21 6 23 -2 3 -7 -2 -11 -11z"/>
<path d="M8050 7420 l-25 -8 28 -1 c15 -1 27 4 27 9 0 6 -1 10 -2 9 -2 -1 -14
-5 -28 -9z"/>
<path d="M7925 7270 c-3 -5 -2 -10 4 -10 5 0 13 5 16 10 3 6 2 10 -4 10 -5 0
-13 -4 -16 -10z"/>
<path d="M6516 7041 c11 -80 78 -245 118 -296 9 -11 -2 17 -24 62 -22 44 -40
87 -40 95 -1 7 -14 51 -31 98 -23 66 -28 75 -23 41z"/>
<path d="M6864 6916 c21 -25 43 -46 48 -46 19 0 -33 64 -66 82 -12 6 -4 -8 18
-36z"/>
<path d="M7101 6869 c-1 -8 6 -24 15 -35 15 -19 15 -19 6 1 -5 11 -12 27 -15
35 -5 13 -6 13 -6 -1z"/>
<path d="M7140 6705 c19 -19 36 -35 38 -35 6 0 -19 32 -42 53 -34 31 -31 18 4
-18z"/>
<path d="M7105 6710 c10 -11 20 -20 23 -20 3 0 -3 9 -13 20 -10 11 -20 20 -23
20 -3 0 3 -9 13 -20z"/>
<path d="M7203 6678 c31 -42 32 -48 13 -48 -8 0 -16 -6 -19 -12 -3 -10 -7 -10
-20 1 -10 7 -17 9 -17 4 0 -5 11 -15 25 -21 33 -15 36 -15 29 3 -9 23 2 18 20
-10 15 -23 15 -24 -1 -18 -11 4 -14 3 -9 -5 10 -16 0 -15 -32 4 l-27 16 25
-21 c14 -11 30 -19 35 -17 6 2 20 -1 33 -5 13 -5 22 -5 22 1 0 5 16 1 35 -10
59 -33 54 -22 -9 19 -33 22 -64 48 -69 58 -10 17 -9 17 10 1 11 -10 23 -18 28
-18 5 0 16 -7 25 -15 16 -14 18 -14 24 2 4 9 4 14 0 11 -12 -12 -61 20 -105
69 -31 35 -35 38 -16 11z"/>
<path d="M7270 6682 c6 -13 14 -21 18 -18 3 4 -2 14 -12 24 -18 16 -18 16 -6
-6z"/>
<path d="M7080 6662 c0 -9 30 -38 65 -62 11 -8 2 5 -20 28 -41 44 -45 47 -45
34z"/>
<path d="M7186 6643 c-6 -14 -5 -15 5 -6 7 7 10 15 7 18 -3 3 -9 -2 -12 -12z"/>
<path d="M7275 6629 c4 -6 10 -8 13 -5 3 3 12 0 21 -7 14 -11 14 -10 2 6 -14
18 -47 24 -36 6z"/>
<path d="M7080 6562 c0 -11 59 -57 64 -51 2 2 -12 17 -31 32 -18 16 -33 24
-33 19z"/>
<path d="M7250 6536 c0 -8 74 -56 85 -56 5 0 2 5 -9 11 -15 9 -16 13 -5 21 11
7 9 8 -5 4 -10 -4 -29 1 -42 9 -13 9 -24 13 -24 11z"/>
<path d="M7190 6526 c0 -2 7 -7 16 -10 8 -3 12 -2 9 4 -6 10 -25 14 -25 6z"/>
<path d="M7184 6492 c3 -6 25 -20 48 -31 41 -21 42 -21 19 -1 -13 11 -18 20
-12 20 7 0 9 5 5 11 -4 8 -9 7 -15 -2 -7 -12 -12 -12 -30 -1 -11 8 -18 9 -15
4z"/>
<path d="M7271 6483 c8 -13 20 -23 28 -23 8 0 12 1 10 3 -2 1 -15 11 -28 22
l-24 20 14 -22z"/>
<path d="M7320 6452 c0 -5 7 -9 15 -9 8 0 12 4 9 9 -3 4 -9 8 -15 8 -5 0 -9
-4 -9 -8z"/>
<path d="M7200 6446 c0 -2 8 -10 18 -17 15 -13 16 -12 3 4 -13 16 -21 21 -21
13z"/>
<path d="M7288 6428 c5 -5 16 -8 23 -6 8 3 3 7 -10 11 -17 4 -21 3 -13 -5z"/>
<path d="M7390 6410 c0 -5 5 -10 11 -10 5 0 7 5 4 10 -3 6 -8 10 -11 10 -2 0
-4 -4 -4 -10z"/>
<path d="M7615 6410 c3 -5 11 -10 16 -10 6 0 7 5 4 10 -3 6 -11 10 -16 10 -6
0 -7 -4 -4 -10z"/>
<path d="M7344 6394 c16 -9 34 -17 40 -18 6 -1 16 -5 23 -9 6 -4 14 -3 17 2 3
5 -13 14 -37 20 -23 7 -49 14 -57 17 -8 3 -2 -3 14 -12z"/>
<path d="M7264 6392 c4 -6 47 -24 96 -39 55 -16 85 -30 77 -35 -8 -5 -5 -8 10
-8 12 0 23 -8 26 -17 2 -10 3 -6 1 9 -2 15 2 29 9 32 7 3 6 5 -3 4 -8 -1 -22
1 -30 4 -42 15 -137 42 -151 44 -9 0 -22 5 -29 9 -9 5 -11 4 -6 -3z"/>
<path d="M7498 6303 c7 -3 16 -2 19 1 4 3 -2 6 -13 5 -11 0 -14 -3 -6 -6z"/>
<path d="M4391 9272 c-1 -20 34 -102 43 -102 2 0 -4 21 -14 48 -9 26 -20 54
-23 62 -3 10 -6 7 -6 -8z"/>
<path d="M4300 9221 c0 -6 4 -13 10 -16 6 -3 7 1 4 9 -7 18 -14 21 -14 7z"/>
<path d="M4317 9183 c-10 -10 -8 -25 2 -18 5 3 17 -9 25 -26 19 -38 20 -42 5
-34 -6 4 -5 -2 3 -14 25 -41 28 -3 3 47 -28 55 -28 56 -38 45z"/>
<path d="M4270 9060 c11 -16 26 -33 32 -36 7 -4 -1 9 -16 29 -34 44 -46 50
-16 7z"/>
<path d="M3730 9069 c0 -8 7 -24 15 -35 19 -25 19 -14 0 22 -8 16 -15 22 -15
13z"/>
<path d="M4024 8786 c11 -9 24 -16 30 -16 12 0 7 5 -24 19 -24 11 -24 11 -6
-3z"/>
<path d="M3620 8953 c0 -5 10 -19 21 -33 l20 -25 -16 33 c-15 30 -25 41 -25
25z"/>
<path d="M3918 8553 c7 -3 16 -2 19 1 4 3 -2 6 -13 5 -11 0 -14 -3 -6 -6z"/>
<path d="M6280 8840 c-8 -5 -10 -10 -5 -10 6 0 17 5 25 10 8 5 11 10 5 10 -5
0 -17 -5 -25 -10z"/>
<path d="M6310 8819 c-27 -15 -29 -18 -10 -13 14 3 32 12 40 20 19 19 12 17
-30 -7z"/>
<path d="M6230 8820 c-8 -5 -10 -10 -5 -10 6 0 17 5 25 10 8 5 11 10 5 10 -5
0 -17 -5 -25 -10z"/>
<path d="M6070 8666 c0 -2 11 -6 25 -8 13 -3 22 -1 19 3 -5 9 -44 13 -44 5z"/>
<path d="M4928 8568 c5 -5 16 -8 23 -6 8 3 3 7 -10 11 -17 4 -21 3 -13 -5z"/>
<path d="M4980 8550 c8 -5 22 -9 30 -9 10 0 8 3 -5 9 -27 12 -43 12 -25 0z"/>
<path d="M3835 8390 l-70 -5 51 -5 c28 -3 64 -3 80 0 50 9 12 15 -61 10z"/>
<path d="M3865 8360 c-19 -8 -19 -9 3 -9 12 -1 22 4 22 9 0 6 -1 10 -2 9 -2 0
-12 -4 -23 -9z"/>
<path d="M3910 8270 c-23 -7 -23 -8 -3 -9 12 -1 25 4 28 9 3 6 5 10 3 9 -2 -1
-14 -5 -28 -9z"/>
<path d="M3870 8065 c-32 -18 -16 -19 35 0 32 11 35 14 15 14 -14 0 -36 -6
-50 -14z"/>
<path d="M3800 8040 c-21 -7 -21 -8 -5 -9 11 0 27 4 35 9 18 11 5 11 -30 0z"/>
<path d="M4857 7453 c-4 -3 -7 -11 -7 -17 0 -6 5 -5 12 2 6 6 9 14 7 17 -3 3
-9 2 -12 -2z"/>
<path d="M5454 7588 l-19 -23 23 19 c21 18 27 26 19 26 -2 0 -12 -10 -23 -22z"/>
<path d="M5208 7083 c-27 -31 -48 -81 -48 -114 0 -63 40 6 63 109 6 27 5 27
-15 5z"/>
<path d="M5672 6385 c0 -50 12 -96 19 -75 3 8 0 38 -7 65 l-12 50 0 -40z"/>
<path d="M5731 6333 c-1 -17 50 -133 59 -133 4 0 -3 21 -15 48 -12 26 -27 58
-33 72 -6 14 -11 20 -11 13z"/>
<path d="M5704 6280 c3 -19 11 -39 16 -44 5 -5 5 8 -1 30 -14 50 -24 60 -15
14z"/>
<path d="M5714 6193 c9 -18 21 -33 26 -33 17 0 11 16 -16 41 l-27 24 17 -32z"/>
<path d="M5745 6139 c-10 -15 3 -25 16 -12 7 7 7 13 1 17 -6 3 -14 1 -17 -5z"/>
<path d="M8381 7004 c-19 -16 -37 -45 -47 -79 -15 -46 -16 -62 -5 -109 12 -53
70 -157 104 -185 25 -20 21 -6 -12 40 -36 49 -66 171 -56 221 4 18 18 57 31
86 12 28 21 52 19 52 -2 0 -17 -12 -34 -26z"/>
<path d="M8180 6691 c0 -6 4 -13 10 -16 6 -3 7 1 4 9 -7 18 -14 21 -14 7z"/>
<path d="M8220 6649 c0 -5 -4 -7 -10 -4 -6 4 -7 -1 -3 -11 4 -12 3 -15 -5 -10
-20 12 -14 -5 22 -58 39 -58 111 -132 100 -102 -6 15 -4 17 6 11 18 -11 6 8
-37 62 -18 23 -33 46 -33 52 0 5 -9 16 -20 24 -13 9 -18 20 -14 31 3 9 3 16 0
16 -3 0 -6 -5 -6 -11z m15 -48 c-2 -4 17 -31 42 -60 25 -28 42 -55 38 -59 -8
-8 -55 47 -85 100 -17 30 -18 37 -6 32 9 -3 14 -9 11 -13z"/>
<path d="M6117 6506 c-3 -8 -2 -18 3 -21 13 -8 20 9 11 24 -6 10 -10 9 -14 -3z"/>
<path d="M6170 6457 c12 -35 12 -37 -1 -37 -5 0 -7 5 -3 12 5 7 3 8 -5 3 -9
-5 -10 -10 -2 -18 8 -8 15 -7 27 4 13 14 13 18 -6 40 l-20 24 10 -28z"/>
<path d="M6120 6452 c9 -19 14 -21 26 -11 8 6 12 15 8 18 -4 3 -9 0 -11 -7 -4
-10 -9 -8 -20 5 -13 16 -13 16 -3 -5z"/>
<path d="M6200 6359 c0 -5 -6 -7 -12 -3 -9 5 -9 2 1 -9 18 -22 27 -21 27 3 0
11 -4 20 -8 20 -4 0 -8 -5 -8 -11z"/>
<path d="M7549 6199 c-10 -6 -10 -9 -1 -9 6 0 13 1 15 3 2 1 23 -15 47 -35 24
-21 48 -38 54 -38 6 0 -2 11 -19 25 -66 55 -81 64 -96 54z"/>
<path d="M11894 6141 c-54 -25 -84 -73 -84 -137 0 -90 55 -144 146 -144 158 0
206 206 64 278 -53 27 -73 27 -126 3z m120 -57 c22 -21 20 -57 -4 -79 -19 -17
-19 -18 6 -54 22 -32 23 -36 7 -40 -9 -2 -19 1 -20 5 -2 5 -12 24 -23 42 -15
24 -27 32 -43 30 -19 -3 -22 -9 -21 -40 2 -31 -2 -38 -16 -38 -17 0 -18 8 -15
93 2 50 4 93 4 95 1 1 25 2 55 2 36 0 60 -5 70 -16z"/>
<path d="M11918 6049 c-6 -36 8 -45 49 -32 52 18 39 63 -18 63 -22 0 -28 -5
-31 -31z"/>
<path d="M1570 5329 c0 -5 5 -7 10 -4 6 3 10 8 10 11 0 2 -4 4 -10 4 -5 0 -10
-5 -10 -11z"/>
<path d="M1235 5170 c3 -5 8 -10 11 -10 2 0 4 5 4 10 0 6 -5 10 -11 10 -5 0
-7 -4 -4 -10z"/>
<path d="M1605 5030 c3 -5 8 -10 11 -10 2 0 4 5 4 10 0 6 -5 10 -11 10 -5 0
-7 -4 -4 -10z"/>
<path d="M2850 4749 c0 -5 5 -7 10 -4 6 3 10 8 10 11 0 2 -4 4 -10 4 -5 0 -10
-5 -10 -11z"/>
<path d="M1455 4590 c-3 -5 -1 -10 4 -10 6 0 11 5 11 10 0 6 -2 10 -4 10 -3 0
-8 -4 -11 -10z"/>
<path d="M1740 4586 c0 -2 7 -9 15 -16 9 -7 15 -8 15 -2 0 5 -7 12 -15 16 -8
3 -15 4 -15 2z"/>
<path d="M2390 4581 c0 -6 4 -13 10 -16 6 -3 7 1 4 9 -7 18 -14 21 -14 7z"/>
<path d="M1475 4560 c-3 -5 -1 -10 4 -10 6 0 11 5 11 10 0 6 -2 10 -4 10 -3 0
-8 -4 -11 -10z"/>
<path d="M1575 4550 c3 -5 8 -10 11 -10 2 0 4 5 4 10 0 6 -5 10 -11 10 -5 0
-7 -4 -4 -10z"/>
<path d="M1430 4540 c0 -5 5 -10 10 -10 6 0 10 5 10 10 0 6 -4 10 -10 10 -5 0
-10 -4 -10 -10z"/>
<path d="M2055 4500 c-3 -5 -1 -10 4 -10 6 0 11 5 11 10 0 6 -2 10 -4 10 -3 0
-8 -4 -11 -10z"/>
<path d="M1835 4490 c-3 -5 -1 -10 4 -10 6 0 11 5 11 10 0 6 -2 10 -4 10 -3 0
-8 -4 -11 -10z"/>
<path d="M1365 4441 c-6 -11 1 -16 38 -25 35 -8 35 0 -2 19 -17 8 -32 11 -36
6z"/>
<path d="M1123 4371 c-9 -24 -8 -29 3 -24 8 3 14 16 14 29 0 31 -3 30 -17 -5z"/>
<path d="M1486 4377 c3 -10 9 -15 12 -12 3 3 0 11 -7 18 -10 9 -11 8 -5 -6z"/>
<path d="M1295 4341 c-2 -5 4 -11 15 -14 11 -3 20 -2 20 3 0 12 -28 21 -35 11z"/>
<path d="M1348 4344 c-3 -5 -2 -18 2 -28 5 -16 8 -17 12 -4 7 16 -7 45 -14 32z"/>
<path d="M1680 4334 c0 -8 5 -12 10 -9 6 4 8 11 5 16 -9 14 -15 11 -15 -7z"/>
<path d="M1710 4340 c0 -5 5 -10 11 -10 5 0 7 5 4 10 -3 6 -8 10 -11 10 -2 0
-4 -4 -4 -10z"/>
<path d="M1387 4329 c7 -7 15 -10 18 -7 3 3 -2 9 -12 12 -14 6 -15 5 -6 -5z"/>
<path d="M1255 4310 c3 -5 8 -10 11 -10 2 0 4 5 4 10 0 6 -5 10 -11 10 -5 0
-7 -4 -4 -10z"/>
<path d="M1036 4283 c-6 -14 -5 -15 5 -6 7 7 10 15 7 18 -3 3 -9 -2 -12 -12z"/>
<path d="M1475 4289 c-4 -6 -5 -12 -2 -15 2 -3 7 2 10 11 7 17 1 20 -8 4z"/>
<path d="M911 4270 c-13 -11 -19 -20 -14 -20 6 0 18 9 28 20 23 25 17 25 -14
0z"/>
<path d="M957 4245 c-50 -47 -51 -57 -14 -76 l22 -12 -20 23 -20 22 50 44 c27
24 45 44 40 44 -6 0 -32 -21 -58 -45z"/>
<path d="M1110 4270 c0 -5 5 -10 10 -10 6 0 10 5 10 10 0 6 -4 10 -10 10 -5 0
-10 -4 -10 -10z"/>
<path d="M1130 4216 c0 -15 4 -25 9 -22 10 7 9 31 -2 42 -4 4 -7 -5 -7 -20z"/>
<path d="M860 4225 c0 -8 29 -12 39 -5 9 5 4 8 -13 8 -14 0 -26 -2 -26 -3z"/>
<path d="M1015 4209 c-4 -6 -5 -12 -2 -15 2 -3 7 2 10 11 7 17 1 20 -8 4z"/>
<path d="M1066 4195 c-3 -8 -1 -15 4 -15 6 0 10 7 10 15 0 8 -2 15 -4 15 -2 0
-6 -7 -10 -15z"/>
<path d="M990 4170 c0 -5 5 -10 10 -10 6 0 10 5 10 10 0 6 -4 10 -10 10 -5 0
-10 -4 -10 -10z"/>
<path d="M864 4149 c-3 -6 -1 -16 6 -22 10 -9 11 -9 6 0 -3 6 -2 14 4 18 5 3
10 1 10 -4 0 -6 5 -11 11 -11 8 0 8 5 -1 15 -15 18 -26 19 -36 4z"/>
<path d="M5350 4920 c0 -5 7 -7 15 -4 8 4 15 8 15 10 0 2 -7 4 -15 4 -8 0 -15
-4 -15 -10z"/>
<path d="M5395 4900 c-3 -5 -2 -10 4 -10 5 0 13 5 16 10 3 6 2 10 -4 10 -5 0
-13 -4 -16 -10z"/>
<path d="M5531 4794 c0 -11 3 -14 6 -6 3 7 2 16 -1 19 -3 4 -6 -2 -5 -13z"/>
<path d="M8766 5612 c-6 -10 -57 -274 -54 -277 11 -7 656 -21 675 -14 36 14
60 64 74 156 19 130 41 122 -346 129 -176 3 -325 7 -332 9 -7 2 -14 1 -17 -3z"/>
<path d="M8610 5120 c0 -5 7 -7 15 -4 8 4 15 8 15 10 0 2 -7 4 -15 4 -8 0 -15
-4 -15 -10z"/>
<path d="M8250 4880 c8 -5 20 -10 25 -10 6 0 3 5 -5 10 -8 5 -19 10 -25 10 -5
0 -3 -5 5 -10z"/>
<path d="M10474 5551 c-30 -18 -33 -25 -54 -143 -12 -67 -44 -230 -70 -362
-51 -253 -52 -281 -8 -291 23 -5 134 -16 540 -57 249 -24 266 -23 287 31 14
36 103 500 134 699 17 112 24 109 -263 121 -539 23 -532 23 -566 2z"/>
<path d="M11015 4620 c-3 -5 -1 -10 4 -10 6 0 11 5 11 10 0 6 -2 10 -4 10 -3
0 -8 -4 -11 -10z"/>
<path d="M10000 4616 c0 -10 28 -13 41 -5 10 6 7 9 -13 9 -16 0 -28 -2 -28 -4z"/>
<path d="M11385 4600 c-3 -5 -1 -10 4 -10 6 0 11 5 11 10 0 6 -2 10 -4 10 -3
0 -8 -4 -11 -10z"/>
<path d="M11396 4543 c-6 -14 -5 -15 5 -6 7 7 10 15 7 18 -3 3 -9 -2 -12 -12z"/>
<path d="M10750 4510 c0 -5 5 -10 11 -10 5 0 7 5 4 10 -3 6 -8 10 -11 10 -2 0
-4 -4 -4 -10z"/>
<path d="M11475 4500 c-16 -7 -17 -9 -3 -9 9 -1 20 4 23 9 7 11 7 11 -20 0z"/>
<path d="M10248 4493 c6 -2 18 -2 25 0 6 3 1 5 -13 5 -14 0 -19 -2 -12 -5z"/>
<path d="M8235 4540 c3 -5 11 -10 16 -10 6 0 7 5 4 10 -3 6 -11 10 -16 10 -6
0 -7 -4 -4 -10z"/>
<path d="M5560 4396 c0 -2 7 -7 16 -10 8 -3 12 -2 9 4 -6 10 -25 14 -25 6z"/>
<path d="M5920 4389 c0 -5 5 -7 10 -4 6 3 10 8 10 11 0 2 -4 4 -10 4 -5 0 -10
-5 -10 -11z"/>
<path d="M4920 4240 c-12 -8 -9 -10 13 -10 16 0 26 4 22 10 -8 12 -16 12 -35
0z"/>
<path d="M5080 4230 c0 -5 5 -10 10 -10 6 0 10 5 10 10 0 6 -4 10 -10 10 -5 0
-10 -4 -10 -10z"/>
<path d="M4881 4156 c-9 -10 -6 -12 14 -8 29 5 31 8 11 15 -8 3 -19 0 -25 -7z"/>
<path d="M4755 4120 c-3 -6 1 -7 9 -4 18 7 21 14 7 14 -6 0 -13 -4 -16 -10z"/>
<path d="M4836 4114 c-5 -14 -4 -15 9 -4 17 14 19 20 6 20 -5 0 -12 -7 -15
-16z"/>
<path d="M4850 4089 c-22 -18 -22 -19 -3 -10 12 6 25 16 28 21 9 15 3 12 -25
-11z"/>
<path d="M4515 3951 c-6 -11 9 -23 19 -14 9 9 7 23 -3 23 -6 0 -12 -4 -16 -9z"/>
<path d="M2590 3365 c0 -54 1 -55 28 -55 35 0 62 27 62 61 0 34 -18 49 -57 49
l-33 0 0 -55z"/>
<path d="M2920 3401 c0 -18 6 -21 41 -21 33 0 40 3 37 18 -2 12 -14 18 -41 20
-32 3 -37 0 -37 -17z"/>
<path d="M3239 3396 c-17 -36 -4 -74 28 -82 40 -11 58 7 58 57 0 44 0 44 -37
47 -32 3 -40 -1 -49 -22z"/>
<path d="M3576 3404 c-9 -24 -9 -24 32 -24 43 0 53 6 45 26 -7 20 -69 18 -77
-2z"/>
<path d="M5210 3400 c0 -17 7 -20 40 -20 33 0 40 3 40 20 0 17 -7 20 -40 20
-33 0 -40 -3 -40 -20z"/>
<path d="M5550 3391 c0 -5 -3 -16 -6 -25 -4 -12 0 -16 16 -16 16 0 20 4 16 16
-3 9 -6 20 -6 25 0 5 -4 9 -10 9 -5 0 -10 -4 -10 -9z"/>
<path d="M6160 3400 c0 -17 7 -20 38 -20 43 0 53 6 45 26 -3 9 -20 14 -44 14
-32 0 -39 -3 -39 -20z"/>
<path d="M6506 3388 c-9 -35 -8 -38 15 -38 16 0 19 4 14 23 -11 35 -22 41 -29
15z"/>
<path d="M8791 3413 c-38 -26 -19 -103 25 -103 33 0 54 21 54 53 0 18 -4 37
-8 43 -12 19 -50 22 -71 7z"/>
<path d="M9132 3414 c-25 -17 -31 -71 -10 -92 17 -17 54 -15 72 4 17 16 21 61
8 80 -13 20 -47 24 -70 8z"/>
<path d="M9460 3364 l0 -56 33 6 c40 8 58 31 50 65 -9 39 -11 41 -49 41 l-34
0 0 -56z"/>
</g>
</svg>
